<?xml version="1.0" encoding="utf-8"?>
<!-- Generator: Adobe Illustrator 27.5.0, SVG Export Plug-In . SVG Version: 6.00 Build 0)  -->
<svg version="1.1" xmlns="http://www.w3.org/2000/svg" xmlns:xlink="http://www.w3.org/1999/xlink" x="0px" y="0px"
	 viewBox="0 0 800 800" style="enable-background:new 0 0 800 800;" xml:space="preserve">
<g id="_x39_0">
	<g>
		<rect style="fill:#FFFFFF;" width="800" height="800"/>
		<g>
			<g>
				<g>
					<g>
						<g>
							<path style="fill-rule:evenodd;clip-rule:evenodd;fill:#F1F8FE;" d="M197.508,653.316c-3.205,0-5.826,2.648-5.826,5.874
								c0,3.169,2.516,5.768,5.624,5.874h95.894c0.067,0,0.124,0.01,0.191,0.01c3.119,0.107,5.625,2.705,5.625,5.874
								c0,3.236-2.621,5.883-5.816,5.883h-81.469c-3.205,0-5.815,2.648-5.815,5.875c0,3.159,2.487,5.758,5.586,5.874h81.737
								c0.077,0,0.153,0.01,0.23,0.01c3.099,0.125,5.586,2.715,5.586,5.874c0,3.236-2.612,5.883-5.816,5.883h-38.481
								c-3.205,0-5.826,2.647-5.826,5.885c0,3.14,2.487,5.729,5.567,5.874h57.938c0.086,0,0.172,0,0.258,0
								c3.08,0.144,5.558,2.733,5.558,5.874c0,2.328-1.359,4.345-3.31,5.297c-0.146,0.07-0.295,0.137-0.449,0.195
								c-0.042,0.017-0.085,0.032-0.127,0.048c-0.162,0.058-0.326,0.108-0.494,0.152c-0.044,0.011-0.087,0.023-0.132,0.034
								c-0.168,0.04-0.338,0.069-0.51,0.094c-0.047,0.007-0.093,0.017-0.14,0.023c-0.215,0.025-0.434,0.04-0.655,0.04h-24.344
								c-1.903,0.967-3.214,2.957-3.214,5.246c0,3.237,2.611,5.885,5.816,5.885h218.609c3.205,0,5.825-2.648,5.825-5.885
								c0-2.279-1.31-4.269-3.204-5.246h-61.305c-0.217,0-0.431-0.015-0.642-0.038c-0.086-0.01-0.169-0.026-0.254-0.039
								c-0.12-0.019-0.24-0.038-0.358-0.065c-0.105-0.023-0.209-0.053-0.313-0.082c-0.091-0.025-0.182-0.053-0.271-0.083
								c-0.112-0.038-0.224-0.079-0.333-0.123c-0.075-0.031-0.148-0.064-0.222-0.098c-2.018-0.926-3.434-2.978-3.434-5.347
								c0-3.236,2.621-5.883,5.826-5.883h94.621c3.204,0,5.826-2.648,5.826-5.874c0-3.237-2.622-5.885-5.826-5.885H443.781
								c-3.194,0-5.815-2.646-5.815-5.874c0-3.236,2.621-5.883,5.815-5.883h144.486c3.205,0,5.826-2.647,5.826-5.884
								c0-3.227-2.621-5.875-5.826-5.875h-76.399c-3.204,0-5.825-2.647-5.825-5.883c0-3.227,2.621-5.874,5.825-5.874h48.564
								c3.204,0,5.815-2.647,5.815-5.884c0-3.227-2.611-5.874-5.815-5.874H484.53c-3.194,0-5.816-2.648-5.816-5.884
								c0-3.236,2.622-5.875,5.816-5.875h155.401c3.194,0,5.815-2.647,5.815-5.883c0-3.236-2.621-5.875-5.815-5.875h-92.633
								c-3.204,0-5.825-2.646-5.825-5.883c0-3.236,2.621-5.884,5.825-5.884h59.698c3.204,0,5.825-2.638,5.825-5.874
								c0-3.236-2.621-5.884-5.825-5.884h-25.281c-3.195,0-5.816-2.647-5.816-5.874c0-3.236,2.621-5.884,5.816-5.884h58.216
								c3.194,0,5.815-2.647,5.815-5.874c0-3.236-2.621-5.884-5.815-5.884H160.079c-3.205,0-5.826,2.647-5.826,5.884
								c0,3.227,2.621,5.874,5.826,5.874h79.47c3.195,0,5.816,2.647,5.816,5.884c0,3.227-2.621,5.874-5.816,5.874h-53.184
								c-3.195,0-5.815,2.648-5.815,5.884c0,3.197,2.563,5.826,5.72,5.874h114.518c0.039,0,0.067,0,0.105,0
								c3.157,0.058,5.72,2.686,5.72,5.884c0,3.236-2.621,5.874-5.826,5.874l0.061,0.009H198.005c-3.195,0-5.816,2.639-5.816,5.875
								c0,3.178,2.525,5.787,5.653,5.874h123.701c0.057,0,0.115,0,0.163,0.009c3.128,0.088,5.663,2.696,5.663,5.875
								c0,2.8-1.962,5.147-4.566,5.732"/>
						</g>
					</g>
					<path style="fill-rule:evenodd;clip-rule:evenodd;fill:#F7FBFE;" d="M322.803,653.164l-1.259,0.142
						C321.977,653.307,322.397,653.255,322.803,653.164z"/>
				</g>
			</g>
			<path style="fill:#F7FBFE;" d="M400,104c197.416,0,357.452,203.649,357.452,454.863H42.548C42.548,307.649,202.584,104,400,104
				L400,104z"/>
			<path style="fill:#F1F8FE;" d="M400,211.638c150.694,0,272.865,155.464,272.865,347.225h-545.73
				C127.135,367.102,249.305,211.638,400,211.638L400,211.638z"/>
			<path style="fill:#E8F3FD;" d="M400,315.068c105.808,0,191.586,109.153,191.586,243.795H208.415
				C208.415,424.221,294.192,315.068,400,315.068L400,315.068z"/>
		</g>
	</g>
	<g>
		<g>
			
				<path style="fill:#FFFFFF;stroke:#268EEB;stroke-width:3;stroke-linecap:round;stroke-linejoin:round;stroke-miterlimit:2.6131;" d="
				M144.131,230.024c0-16.665,13.375-30.173,29.874-30.173c16.5,0,29.874,13.508,29.874,30.173 M249.288,230.024h-8.71
				 M172.583,237.379h-43.5 M144.131,230.024h-43.5 M240.578,230.024c0-10.236-8.216-18.531-18.351-18.531
				c-10.132,0-18.348,8.295-18.348,18.531"/>
		</g>
	</g>
	<g>
		<g>
			
				<path style="fill:#FFFFFF;stroke:#268EEB;stroke-width:3;stroke-linecap:round;stroke-linejoin:round;stroke-miterlimit:2.6131;" d="
				M702.495,391.254c0-12.013,9.642-21.749,21.535-21.749c11.893,0,21.533,9.737,21.533,21.749 M676.041,391.254h-26.277
				 M766.411,396.556h-41.356 M756.92,391.254h-11.356 M702.495,391.254c0-7.378-5.922-13.358-13.226-13.358
				c-7.305,0-13.228,5.979-13.228,13.358"/>
		</g>
	</g>
	<g>
		<path style="fill:#268EEB;" d="M658.66,169.718c-0.47,0-0.918-0.221-1.203-0.605c-3.09-4.15-9.926-5.223-15.567-2.442
			c-0.741,0.368-1.642,0.061-2.009-0.682c-0.366-0.743-0.061-1.643,0.683-2.009c6.017-2.969,13.239-2.228,17.59,1.512
			c2.705-5.372,8.167-7.725,16.647-7.19c0.826,0.053,1.454,0.766,1.401,1.592c-0.053,0.826-0.727,1.448-1.593,1.402
			c-10.65-0.676-13.396,3.887-14.521,7.38c-0.172,0.535-0.629,0.929-1.183,1.021C658.823,169.711,658.741,169.718,658.66,169.718z"
			/>
	</g>
	<g>
		<path style="fill:#268EEB;" d="M712.76,201.601c-0.47,0-0.918-0.221-1.203-0.605c-2.426-3.26-7.816-4.093-12.275-1.896
			c-0.742,0.368-1.642,0.061-2.009-0.682c-0.366-0.743-0.061-1.643,0.683-2.009c4.859-2.398,10.674-1.867,14.31,1.044
			c2.31-4.199,6.888-6.104,13.604-5.679c0.827,0.053,1.455,0.766,1.402,1.592c-0.053,0.826-0.758,1.448-1.592,1.402
			c-8.456-0.538-10.609,3.047-11.492,5.791c-0.172,0.535-0.629,0.929-1.183,1.021C712.923,201.594,712.841,201.601,712.76,201.601z"
			/>
	</g>
	<g>
		<path style="fill:#268EEB;" d="M546.253,89.108c-0.47,0-0.918-0.221-1.203-0.604c-4.892-6.572-15.664-8.297-24.527-3.928
			c-0.741,0.367-1.642,0.061-2.009-0.682c-0.366-0.743-0.061-1.642,0.683-2.008c9.2-4.537,20.299-3.195,26.541,2.87
			c3.787-8.481,11.951-12.213,24.9-11.388c0.826,0.053,1.454,0.766,1.401,1.592c-0.053,0.826-0.732,1.452-1.593,1.402
			c-12.698-0.811-19.936,2.912-22.766,11.707c-0.172,0.535-0.628,0.929-1.183,1.021C546.416,89.102,546.334,89.108,546.253,89.108z"
			/>
	</g>
	<g>
		<path style="fill:#268EEB;" d="M596.159,152.738c-0.47,0-0.918-0.221-1.203-0.604c-3.089-4.15-9.926-5.224-15.567-2.442
			c-0.741,0.367-1.642,0.061-2.009-0.682c-0.366-0.743-0.061-1.643,0.683-2.009c6.018-2.969,13.24-2.228,17.59,1.512
			c2.705-5.372,8.163-7.724,16.646-7.19c0.826,0.053,1.454,0.766,1.401,1.592c-0.053,0.826-0.731,1.449-1.593,1.402
			c-10.652-0.676-13.395,3.887-14.52,7.38c-0.172,0.535-0.629,0.929-1.183,1.021C596.322,152.731,596.24,152.738,596.159,152.738z"
			/>
	</g>
	<g>
		<path style="fill:#268EEB;" d="M734.439,268.721c-0.348,0-0.681-0.164-0.892-0.449c-1.445-1.947-4.691-2.439-7.392-1.12
			c-0.551,0.271-1.216,0.041-1.486-0.509c-0.269-0.551-0.041-1.216,0.51-1.486c3.064-1.499,6.596-1.221,8.906,0.536
			c1.499-2.529,4.35-3.68,8.496-3.429c0.612,0.037,1.078,0.564,1.041,1.176c-0.037,0.612-0.542,1.083-1.176,1.042
			c-5.053-0.313-6.374,1.694-6.951,3.472c-0.129,0.396-0.467,0.686-0.877,0.753C734.559,268.716,734.499,268.721,734.439,268.721z"
			/>
	</g>
	<g>
		<g>
			<g>
				<rect x="183.773" y="393.891" style="fill:#D4E8FB;" width="435.52" height="188.472"/>
			</g>
			<g>
				<polygon style="fill:#D4E8FB;" points="173.369,393.891 629.7,393.891 639.746,362.479 509.964,362.479 509.964,383.381 
					481.02,383.381 481.02,362.479 322.05,362.479 322.05,383.381 293.104,383.381 293.104,362.479 163.202,362.479 				"/>
			</g>
			<g>
				<polygon style="fill:#FFFFFF;" points="183.773,310.049 293.104,310.049 293.104,325.752 322.05,325.752 322.05,310.049 
					481.02,310.049 481.02,325.752 509.964,325.752 509.964,310.049 619.294,310.049 619.294,351.969 509.964,351.969 
					509.964,341.459 481.02,341.459 481.02,351.969 322.05,351.969 322.05,341.459 293.104,341.459 293.104,351.969 
					183.773,351.969 				"/>
			</g>
			<g>
				<polygon style="fill:#FFFFFF;" points="184.013,310.049 246.094,310.049 293.104,310.049 293.104,299.538 174.324,299.538 				
					"/>
			</g>
			<g>
				<rect x="322.05" y="299.538" style="fill:#FFFFFF;" width="158.97" height="10.511"/>
			</g>
			<g>
				<polygon style="fill:#FFFFFF;" points="509.964,310.049 619.057,310.049 628.743,299.538 509.964,299.538 				"/>
			</g>
			<g>
				<polygon style="fill:#D4E8FB;" points="183.773,268.124 296.929,268.124 296.929,278.637 318.221,278.637 318.221,268.124 
					484.848,268.124 484.848,278.637 506.136,278.637 506.136,268.124 619.294,268.124 619.294,289.147 183.773,289.147 				"/>
			</g>
			<g>
				<path style="fill:#D4E8FB;" d="M401.475,425.303c33.49,17.759,45.572,41.199,49.759,72.732l0.12,0.606h-8.374v10.387h9.449
					c1.558,21.022,0.718,45.187,0.718,73.335H350.277c0-27.91-1.315-52.189,0-73.335h9.812v-10.387h-8.971
					C354.702,466.624,366.307,442.698,401.475,425.303L401.475,425.303z"/>
			</g>
			<g>
				<rect x="328.989" y="498.641" style="fill:#FFFFFF;" width="31.1" height="10.387"/>
			</g>
			<g>
				<rect x="442.979" y="498.641" style="fill:#D4E8FB;" width="31.1" height="10.387"/>
			</g>
			<g>
				<rect x="286.165" y="393.891" style="fill:#FFFFFF;" width="42.824" height="157.06"/>
			</g>
			<g>
				<rect x="277.074" y="561.462" style="fill:#FFFFFF;" width="59.567" height="10.509"/>
			</g>
			<g>
				<rect x="281.858" y="383.381" style="fill:#D4E8FB;" width="51.437" height="10.51"/>
			</g>
			<g>
				<rect x="293.104" y="341.459" style="fill:#FFFFFF;" width="28.945" height="41.922"/>
			</g>
			<g>
				<rect x="287.479" y="278.637" style="fill:#D4E8FB;" width="41.51" height="10.511"/>
			</g>
			<g>
				<rect x="293.104" y="289.147" style="fill:#FFFFFF;" width="28.945" height="36.604"/>
			</g>
			<g>
				<rect x="296.929" y="226.324" style="fill:#D4E8FB;" width="21.292" height="52.313"/>
			</g>
			<g>
				<rect x="297.291" y="194.914" style="fill:#FFFFFF;" width="20.571" height="26.095"/>
			</g>
			<g>
				<rect x="286.165" y="331.068" style="fill:#D4E8FB;" width="42.824" height="10.391"/>
			</g>
			<g>
				<rect x="290.232" y="221.009" style="fill:#D4E8FB;" width="35.884" height="5.315"/>
			</g>
			<g>
				<rect x="286.165" y="325.752" style="fill:#D4E8FB;" width="42.824" height="5.316"/>
			</g>
			<g>
				<rect x="293.224" y="189.598" style="fill:#D4E8FB;" width="29.901" height="5.316"/>
			</g>
			<g>
				<rect x="281.858" y="383.381" style="fill:#D4E8FB;" width="51.437" height="5.196"/>
			</g>
			<g>
				<rect x="286.165" y="393.891" style="fill:#D4E8FB;" width="10.764" height="157.06"/>
			</g>
			<g>
				<rect x="286.165" y="393.891" style="fill:#D4E8FB;" width="22.01" height="157.06"/>
			</g>
			<g>
				<rect x="286.165" y="393.891" style="fill:#D4E8FB;" width="32.415" height="157.06"/>
			</g>
			<g>
				<rect x="293.104" y="341.459" style="fill:#FFFFFF;" width="15.07" height="41.922"/>
			</g>
			<g>
				<rect x="308.175" y="289.147" style="fill:#FFFFFF;" width="13.875" height="36.604"/>
			</g>
			<g>
				<rect x="293.104" y="317.659" style="fill:#FFFFFF;" width="28.945" height="8.093"/>
			</g>
			<g>
				<rect x="293.104" y="372.87" style="fill:#D4E8FB;" width="28.945" height="10.511"/>
			</g>
			<g>
				<rect x="296.929" y="226.324" style="fill:#FFFFFF;" width="10.648" height="52.313"/>
			</g>
			<g>
				<rect x="296.929" y="247.224" style="fill:#D4E8FB;" width="21.292" height="31.413"/>
			</g>
			<g>
				<rect x="297.291" y="194.914" style="fill:#FFFFFF;" width="10.884" height="26.095"/>
			</g>
			<g>
				<rect x="297.291" y="212.188" style="fill:#FFFFFF;" width="20.571" height="8.821"/>
			</g>
			<g>
				<rect x="297.291" y="205.302" style="fill:#D4E8FB;" width="20.571" height="15.707"/>
			</g>
			<g>
				<rect x="474.079" y="393.891" style="fill:#D4E8FB;" width="42.825" height="157.06"/>
			</g>
			<g>
				<rect x="464.989" y="561.462" style="fill:#FFFFFF;" width="59.567" height="10.509"/>
			</g>
			<g>
				<rect x="469.774" y="383.381" style="fill:#D4E8FB;" width="51.436" height="10.51"/>
			</g>
			<g>
				<rect x="481.02" y="341.459" style="fill:#FFFFFF;" width="28.944" height="41.922"/>
			</g>
			<g>
				<rect x="475.395" y="278.637" style="fill:#FFFFFF;" width="41.51" height="10.511"/>
			</g>
			<g>
				<rect x="481.02" y="289.147" style="fill:#FFFFFF;" width="28.944" height="36.604"/>
			</g>
			<g>
				<rect x="484.848" y="226.324" style="fill:#D4E8FB;" width="21.288" height="52.313"/>
			</g>
			<g>
				<rect x="485.207" y="194.914" style="fill:#FFFFFF;" width="20.571" height="26.095"/>
			</g>
			<g>
				<rect x="474.079" y="331.068" style="fill:#D4E8FB;" width="42.825" height="10.391"/>
			</g>
			<g>
				<rect x="478.147" y="221.009" style="fill:#D4E8FB;" width="35.885" height="5.315"/>
			</g>
			<g>
				<rect x="474.079" y="325.752" style="fill:#FFFFFF;" width="42.825" height="5.316"/>
			</g>
			<g>
				<rect x="481.139" y="189.598" style="fill:#FFFFFF;" width="29.901" height="5.316"/>
			</g>
			<g>
				<rect x="469.774" y="383.381" style="fill:#FFFFFF;" width="51.436" height="5.196"/>
			</g>
			<g>
				<rect x="474.079" y="393.891" style="fill:#D4E8FB;" width="10.769" height="157.06"/>
			</g>
			<g>
				<rect x="474.079" y="393.891" style="fill:#D4E8FB;" width="22.011" height="157.06"/>
			</g>
			<g>
				<rect x="474.079" y="393.891" style="fill:#FFFFFF;" width="31.938" height="157.06"/>
			</g>
			<g>
				<rect x="481.02" y="341.459" style="fill:#FFFFFF;" width="15.07" height="41.922"/>
			</g>
			<g>
				<rect x="496.09" y="289.147" style="fill:#FFFFFF;" width="13.874" height="36.604"/>
			</g>
			<g>
				<rect x="481.02" y="317.899" style="fill:#D4E8FB;" width="28.944" height="7.853"/>
			</g>
			<g>
				<rect x="481.02" y="372.87" style="fill:#FFFFFF;" width="28.944" height="10.511"/>
			</g>
			<g>
				<rect x="484.848" y="226.324" style="fill:#FFFFFF;" width="10.644" height="52.313"/>
			</g>
			<g>
				<rect x="484.848" y="247.224" style="fill:#FFFFFF;" width="21.288" height="31.413"/>
			</g>
			<g>
				<rect x="485.207" y="194.914" style="fill:#FFFFFF;" width="10.883" height="26.095"/>
			</g>
			<g>
				<rect x="485.207" y="212.188" style="fill:#D4E8FB;" width="20.571" height="8.821"/>
			</g>
			<g>
				<rect x="485.207" y="205.302" style="fill:#FFFFFF;" width="20.571" height="15.707"/>
			</g>
			<g>
				<rect x="328.989" y="236.714" style="fill:#FFFFFF;" width="145.09" height="21.021"/>
			</g>
			<g>
				<rect x="225.279" y="477.615" style="fill:#FFFFFF;" width="41.39" height="94.355"/>
			</g>
			<g>
				<path style="fill:#FFFFFF;" d="M234.37,502.023c1.916,0,3.35-1.574,3.35-3.383c0-1.934-1.434-3.385-3.35-3.385
					c-1.793,0-3.347,1.451-3.347,3.385C231.023,500.449,232.577,502.023,234.37,502.023L234.37,502.023z"/>
			</g>
			<g>
				<path style="fill:#FFFFFF;" d="M257.817,502.023c1.912,0,3.347-1.574,3.347-3.383c0-1.934-1.435-3.385-3.347-3.385
					c-1.797,0-3.35,1.451-3.35,3.385C254.468,500.449,256.021,502.023,257.817,502.023L257.817,502.023z"/>
			</g>
			<g>
				<rect x="506.017" y="393.891" style="fill:#FFFFFF;" width="10.888" height="157.06"/>
			</g>
			<g>
				<rect x="536.161" y="477.615" style="fill:#FFFFFF;" width="41.504" height="94.355"/>
			</g>
			<g>
				<path style="fill:#D4E8FB;" d="M568.456,502.023c1.917,0,3.35-1.574,3.35-3.383c0-1.934-1.434-3.385-3.35-3.385
					c-1.793,0-3.348,1.451-3.348,3.385C565.108,500.449,566.663,502.023,568.456,502.023L568.456,502.023z"/>
			</g>
			<g>
				<path style="fill:#D4E8FB;" d="M545.012,502.023c1.914,0,3.352-1.574,3.352-3.383c0-1.934-1.438-3.385-3.352-3.385
					c-1.792,0-3.351,1.451-3.351,3.385C541.661,500.449,543.22,502.023,545.012,502.023L545.012,502.023z"/>
			</g>
			<g>
				<rect x="339.274" y="317.659" style="fill:#FFFFFF;" width="10.405" height="34.31"/>
			</g>
			<g>
				<rect x="349.68" y="317.659" style="fill:#FFFFFF;" width="10.409" height="34.31"/>
			</g>
			<g>
				<rect x="360.089" y="317.659" style="fill:#FFFFFF;" width="10.286" height="34.31"/>
			</g>
			<g>
				<rect x="370.375" y="317.659" style="fill:#FFFFFF;" width="10.405" height="34.31"/>
			</g>
			<g>
				<rect x="380.78" y="317.659" style="fill:#FFFFFF;" width="10.408" height="34.31"/>
			</g>
			<g>
				<rect x="391.188" y="317.659" style="fill:#FFFFFF;" width="10.286" height="34.31"/>
			</g>
			<g>
				<rect x="401.475" y="317.659" style="fill:#FFFFFF;" width="10.405" height="34.31"/>
			</g>
			<g>
				<rect x="411.88" y="317.659" style="fill:#FFFFFF;" width="10.41" height="34.31"/>
			</g>
			<g>
				<rect x="422.29" y="317.659" style="fill:#FFFFFF;" width="10.404" height="34.31"/>
			</g>
			<g>
				<rect x="432.694" y="317.659" style="fill:#FFFFFF;" width="10.285" height="34.31"/>
			</g>
			<g>
				<rect x="442.979" y="317.659" style="fill:#FFFFFF;" width="10.41" height="34.31"/>
			</g>
			<g>
				<rect x="453.39" y="317.659" style="fill:#D4E8FB;" width="10.404" height="34.31"/>
			</g>
			<g>
				<polygon style="fill:#D4E8FB;" points="183.773,372.87 194.179,372.87 192.147,393.891 185.81,393.891 				"/>
			</g>
			<g>
				<polygon style="fill:#FFFFFF;" points="199.326,372.87 209.731,372.87 207.699,393.891 201.357,393.891 				"/>
			</g>
			<g>
				<polygon style="fill:#FFFFFF;" points="214.874,372.87 225.279,372.87 223.247,393.891 216.91,393.891 				"/>
			</g>
			<g>
				<polygon style="fill:#D4E8FB;" points="230.427,372.87 240.831,372.87 238.796,393.891 232.458,393.891 				"/>
			</g>
			<g>
				<polygon style="fill:#D4E8FB;" points="245.975,372.87 256.38,372.87 254.348,393.891 248.01,393.891 				"/>
			</g>
			<g>
				<polygon style="fill:#FFFFFF;" points="261.526,372.87 271.932,372.87 269.896,393.891 263.558,393.891 				"/>
			</g>
			<g>
				<polygon style="fill:#FFFFFF;" points="530.778,372.87 541.184,372.87 539.151,393.891 532.81,393.891 				"/>
			</g>
			<g>
				<polygon style="fill:#D4E8FB;" points="546.327,372.87 556.736,372.87 554.701,393.891 548.363,393.891 				"/>
			</g>
			<g>
				<polygon style="fill:#D4E8FB;" points="561.878,372.87 572.284,372.87 570.252,393.891 563.91,393.891 				"/>
			</g>
			<g>
				<polygon style="fill:#FFFFFF;" points="577.426,372.87 587.835,372.87 585.8,393.891 579.462,393.891 				"/>
			</g>
			<g>
				<polygon style="fill:#FFFFFF;" points="592.978,372.87 603.385,372.87 601.352,393.891 595.011,393.891 				"/>
			</g>
			<g>
				<polygon style="fill:#FFFFFF;" points="608.526,372.87 618.935,372.87 616.9,393.891 610.563,393.891 				"/>
			</g>
			<g>
				<path style="fill:#FFFFFF;" d="M349.68,431.828c4.067,0,7.298-3.383,7.298-7.37c0-4.108-3.23-7.37-7.298-7.37
					c-4.067,0-7.294,3.262-7.294,7.37C342.386,428.445,345.612,431.828,349.68,431.828L349.68,431.828z"/>
			</g>
			<g>
				<path style="fill:#FFFFFF;" d="M453.39,431.828c4.064,0,7.293-3.383,7.293-7.37c0-4.108-3.229-7.37-7.293-7.37
					c-4.067,0-7.299,3.262-7.299,7.37C446.091,428.445,449.322,431.828,453.39,431.828L453.39,431.828z"/>
			</g>
		</g>
		<path style="fill:#268EEB;" d="M619.294,583.862H183.773c-0.829,0-1.5-0.672-1.5-1.5V393.891c0-0.828,0.671-1.5,1.5-1.5h435.521
			c0.828,0,1.5,0.672,1.5,1.5v188.472C620.794,583.19,620.122,583.862,619.294,583.862z M185.273,580.862h432.521V395.391H185.273
			V580.862z"/>
		<path style="fill:#268EEB;" d="M629.7,395.391H173.369c-0.65,0-1.227-0.419-1.427-1.038l-10.167-31.411
			c-0.148-0.456-0.068-0.956,0.214-1.345c0.282-0.388,0.733-0.617,1.213-0.617h129.902c0.829,0,1.5,0.672,1.5,1.5v19.401h25.945
			v-19.401c0-0.828,0.671-1.5,1.5-1.5h158.97c0.828,0,1.5,0.672,1.5,1.5v19.401h25.944v-19.401c0-0.828,0.672-1.5,1.5-1.5h129.782
			c0.479,0,0.929,0.229,1.212,0.615c0.282,0.387,0.362,0.886,0.217,1.342l-10.046,31.411
			C630.93,394.969,630.352,395.391,629.7,395.391z M174.46,392.391h454.145l9.086-28.411H511.464v19.401c0,0.828-0.672,1.5-1.5,1.5
			H481.02c-0.828,0-1.5-0.672-1.5-1.5v-19.401H323.55v19.401c0,0.828-0.671,1.5-1.5,1.5h-28.945c-0.829,0-1.5-0.672-1.5-1.5v-19.401
			h-126.34L174.46,392.391z"/>
		<path style="fill:#268EEB;" d="M619.294,353.469h-109.33c-0.828,0-1.5-0.671-1.5-1.5v-9.01H482.52v9.01c0,0.829-0.672,1.5-1.5,1.5
			H322.05c-0.829,0-1.5-0.671-1.5-1.5v-9.01h-25.945v9.01c0,0.829-0.671,1.5-1.5,1.5H183.773c-0.829,0-1.5-0.671-1.5-1.5v-41.92
			c0-0.829,0.671-1.5,1.5-1.5h109.331c0.829,0,1.5,0.671,1.5,1.5v14.203h25.945v-14.203c0-0.829,0.671-1.5,1.5-1.5h158.97
			c0.828,0,1.5,0.671,1.5,1.5v14.203h25.944v-14.203c0-0.829,0.672-1.5,1.5-1.5h109.33c0.828,0,1.5,0.671,1.5,1.5v41.92
			C620.794,352.798,620.122,353.469,619.294,353.469z M511.464,350.469h106.33v-38.92h-106.33v14.203c0,0.829-0.672,1.5-1.5,1.5
			H481.02c-0.828,0-1.5-0.671-1.5-1.5v-14.203H323.55v14.203c0,0.829-0.671,1.5-1.5,1.5h-28.945c-0.829,0-1.5-0.671-1.5-1.5v-14.203
			H185.273v38.92h106.331v-9.01c0-0.829,0.671-1.5,1.5-1.5h28.945c0.829,0,1.5,0.671,1.5,1.5v9.01h155.97v-9.01
			c0-0.829,0.672-1.5,1.5-1.5h28.944c0.828,0,1.5,0.671,1.5,1.5V350.469z"/>
		<path style="fill:#268EEB;" d="M293.104,311.549H184.013c-0.419,0-0.819-0.175-1.103-0.483l-9.689-10.511
			c-0.404-0.438-0.51-1.073-0.271-1.619c0.239-0.545,0.778-0.898,1.374-0.898h118.78c0.829,0,1.5,0.671,1.5,1.5v10.511
			C294.604,310.877,293.933,311.549,293.104,311.549z M184.67,308.549h106.935v-7.511H177.747L184.67,308.549z"/>
		<path style="fill:#268EEB;" d="M481.02,311.549H322.05c-0.829,0-1.5-0.671-1.5-1.5v-10.511c0-0.829,0.671-1.5,1.5-1.5h158.97
			c0.828,0,1.5,0.671,1.5,1.5v10.511C482.52,310.877,481.848,311.549,481.02,311.549z M323.55,308.549h155.97v-7.511H323.55V308.549
			z"/>
		<path style="fill:#268EEB;" d="M619.057,311.549H509.964c-0.828,0-1.5-0.671-1.5-1.5v-10.511c0-0.829,0.672-1.5,1.5-1.5h118.779
			c0.596,0,1.135,0.353,1.374,0.898c0.239,0.545,0.133,1.181-0.271,1.619l-9.687,10.511
			C619.876,311.374,619.476,311.549,619.057,311.549z M511.464,308.549h106.936l6.922-7.511H511.464V308.549z"/>
		<path style="fill:#268EEB;" d="M619.294,290.647H183.773c-0.829,0-1.5-0.671-1.5-1.5v-21.023c0-0.829,0.671-1.5,1.5-1.5h113.155
			c0.829,0,1.5,0.671,1.5,1.5v9.013h18.292v-9.013c0-0.829,0.671-1.5,1.5-1.5h166.627c0.828,0,1.5,0.671,1.5,1.5v9.013h18.288
			v-9.013c0-0.829,0.672-1.5,1.5-1.5h113.158c0.828,0,1.5,0.671,1.5,1.5v21.023C620.794,289.976,620.122,290.647,619.294,290.647z
			 M185.273,287.647h432.521v-18.023H507.636v9.013c0,0.829-0.672,1.5-1.5,1.5h-21.288c-0.828,0-1.5-0.671-1.5-1.5v-9.013H319.721
			v9.013c0,0.829-0.671,1.5-1.5,1.5h-21.292c-0.829,0-1.5-0.671-1.5-1.5v-9.013H185.273V287.647z"/>
		<path style="fill:#268EEB;" d="M453.146,583.862H350.277c-0.829,0-1.5-0.672-1.5-1.5c0-9.711-0.159-18.93-0.312-27.845
			c-0.281-16.325-0.546-31.746,0.315-45.583c0.049-0.791,0.705-1.407,1.497-1.407h8.312v-7.387h-7.471
			c-0.427,0-0.833-0.182-1.118-0.5c-0.285-0.318-0.42-0.742-0.373-1.167c4.141-36.993,18.97-58.582,51.182-74.516
			c0.433-0.214,0.941-0.206,1.368,0.02c30.716,16.288,45.832,38.377,50.543,73.859l0.104,0.513c0.087,0.439-0.027,0.896-0.313,1.243
			c-0.285,0.347-0.71,0.548-1.159,0.548h-6.874v7.387h7.949c0.785,0,1.438,0.605,1.496,1.39c1.143,15.426,1.003,32.181,0.841,51.582
			c-0.059,7.027-0.119,14.295-0.119,21.863C454.646,583.19,453.975,583.862,453.146,583.862z M351.776,580.862h99.872
			c0.007-7.043,0.063-13.819,0.118-20.389c0.157-18.752,0.293-35.022-0.733-49.946h-8.053c-0.828,0-1.5-0.672-1.5-1.5v-10.387
			c0-0.828,0.672-1.5,1.5-1.5h6.621c-4.771-33.987-18.797-54.391-48.149-70.15c-30.21,15.143-44.411,35.592-48.647,70.15h7.285
			c0.829,0,1.5,0.672,1.5,1.5v10.387c0,0.828-0.671,1.5-1.5,1.5h-8.398c-0.752,13.359-0.496,28.229-0.226,43.939
			C351.611,562.934,351.761,571.676,351.776,580.862z"/>
		<path style="fill:#268EEB;" d="M360.089,510.527h-31.1c-0.829,0-1.5-0.672-1.5-1.5v-10.387c0-0.828,0.671-1.5,1.5-1.5h31.1
			c0.829,0,1.5,0.672,1.5,1.5v10.387C361.589,509.855,360.917,510.527,360.089,510.527z M330.489,507.527h28.1v-7.387h-28.1V507.527
			z"/>
		<path style="fill:#268EEB;" d="M474.079,510.527h-31.1c-0.828,0-1.5-0.672-1.5-1.5v-10.387c0-0.828,0.672-1.5,1.5-1.5h31.1
			c0.828,0,1.5,0.672,1.5,1.5v10.387C475.579,509.855,474.907,510.527,474.079,510.527z M444.479,507.527h28.1v-7.387h-28.1V507.527
			z"/>
		<path style="fill:#268EEB;" d="M328.989,552.45h-42.824c-0.829,0-1.5-0.672-1.5-1.5v-157.06c0-0.828,0.671-1.5,1.5-1.5h42.824
			c0.829,0,1.5,0.672,1.5,1.5v157.06C330.489,551.778,329.818,552.45,328.989,552.45z M287.665,549.45h39.824v-154.06h-39.824
			V549.45z"/>
		<path style="fill:#268EEB;" d="M336.642,573.471h-59.567c-0.829,0-1.5-0.672-1.5-1.5v-10.509c0-0.828,0.671-1.5,1.5-1.5h59.567
			c0.829,0,1.5,0.672,1.5,1.5v10.509C338.142,572.799,337.47,573.471,336.642,573.471z M278.574,570.471h56.567v-7.509h-56.567
			V570.471z"/>
		<path style="fill:#268EEB;" d="M333.295,395.391h-51.436c-0.829,0-1.5-0.672-1.5-1.5v-10.51c0-0.828,0.671-1.5,1.5-1.5h51.436
			c0.829,0,1.5,0.672,1.5,1.5v10.51C334.795,394.719,334.124,395.391,333.295,395.391z M283.358,392.391h48.436v-7.51h-48.436
			V392.391z"/>
		<path style="fill:#268EEB;" d="M322.05,384.881h-28.945c-0.829,0-1.5-0.672-1.5-1.5v-41.922c0-0.829,0.671-1.5,1.5-1.5h28.945
			c0.829,0,1.5,0.671,1.5,1.5v41.922C323.55,384.209,322.878,384.881,322.05,384.881z M294.604,381.881h25.945v-38.922h-25.945
			V381.881z"/>
		<path style="fill:#268EEB;" d="M328.989,290.647h-41.51c-0.829,0-1.5-0.671-1.5-1.5v-10.511c0-0.829,0.671-1.5,1.5-1.5h41.51
			c0.829,0,1.5,0.671,1.5,1.5v10.511C330.489,289.976,329.818,290.647,328.989,290.647z M288.979,287.647h38.51v-7.511h-38.51
			V287.647z"/>
		<path style="fill:#268EEB;" d="M322.05,327.252h-28.945c-0.829,0-1.5-0.671-1.5-1.5v-36.605c0-0.829,0.671-1.5,1.5-1.5h28.945
			c0.829,0,1.5,0.671,1.5,1.5v36.605C323.55,326.581,322.878,327.252,322.05,327.252z M294.604,324.252h25.945v-33.605h-25.945
			V324.252z"/>
		<path style="fill:#268EEB;" d="M318.221,280.137h-21.292c-0.829,0-1.5-0.671-1.5-1.5v-52.312c0-0.829,0.671-1.5,1.5-1.5h21.292
			c0.829,0,1.5,0.671,1.5,1.5v52.312C319.721,279.465,319.049,280.137,318.221,280.137z M298.429,277.137h18.292v-49.312h-18.292
			V277.137z"/>
		<path style="fill:#268EEB;" d="M317.862,222.509h-20.571c-0.829,0-1.5-0.671-1.5-1.5v-26.095c0-0.829,0.671-1.5,1.5-1.5h20.571
			c0.829,0,1.5,0.671,1.5,1.5v26.095C319.362,221.837,318.691,222.509,317.862,222.509z M298.791,219.509h17.571v-23.095h-17.571
			V219.509z"/>
		<path style="fill:#268EEB;" d="M328.989,342.959h-42.824c-0.829,0-1.5-0.671-1.5-1.5v-10.391c0-0.829,0.671-1.5,1.5-1.5h42.824
			c0.829,0,1.5,0.671,1.5,1.5v10.391C330.489,342.288,329.818,342.959,328.989,342.959z M287.665,339.959h39.824v-7.391h-39.824
			V339.959z"/>
		<path style="fill:#268EEB;" d="M326.116,227.824h-35.884c-0.829,0-1.5-0.671-1.5-1.5v-5.315c0-0.829,0.671-1.5,1.5-1.5h35.884
			c0.829,0,1.5,0.671,1.5,1.5v5.315C327.616,227.153,326.945,227.824,326.116,227.824z M291.732,224.824h32.884v-2.315h-32.884
			V224.824z"/>
		<path style="fill:#268EEB;" d="M328.989,332.568h-42.824c-0.829,0-1.5-0.671-1.5-1.5v-5.316c0-0.829,0.671-1.5,1.5-1.5h42.824
			c0.829,0,1.5,0.671,1.5,1.5v5.316C330.489,331.897,329.818,332.568,328.989,332.568z M287.665,329.568h39.824v-2.316h-39.824
			V329.568z"/>
		<path style="fill:#268EEB;" d="M323.125,196.414h-29.901c-0.829,0-1.5-0.671-1.5-1.5v-5.316c0-0.829,0.671-1.5,1.5-1.5h29.901
			c0.829,0,1.5,0.671,1.5,1.5v5.316C324.625,195.743,323.954,196.414,323.125,196.414z M294.724,193.414h26.901v-2.316h-26.901
			V193.414z"/>
		<path style="fill:#268EEB;" d="M333.295,390.077h-51.436c-0.829,0-1.5-0.672-1.5-1.5v-5.196c0-0.828,0.671-1.5,1.5-1.5h51.436
			c0.829,0,1.5,0.672,1.5,1.5v5.196C334.795,389.405,334.124,390.077,333.295,390.077z M283.358,387.077h48.436v-2.196h-48.436
			V387.077z"/>
		<path style="fill:#268EEB;" d="M296.929,552.45h-10.764c-0.829,0-1.5-0.672-1.5-1.5v-157.06c0-0.828,0.671-1.5,1.5-1.5h10.764
			c0.829,0,1.5,0.672,1.5,1.5v157.06C298.429,551.778,297.757,552.45,296.929,552.45z M287.665,549.45h7.764v-154.06h-7.764V549.45z
			"/>
		<path style="fill:#268EEB;" d="M308.175,552.45h-22.01c-0.829,0-1.5-0.672-1.5-1.5v-157.06c0-0.828,0.671-1.5,1.5-1.5h22.01
			c0.829,0,1.5,0.672,1.5,1.5v157.06C309.675,551.778,309.003,552.45,308.175,552.45z M287.665,549.45h19.01v-154.06h-19.01V549.45z
			"/>
		<path style="fill:#268EEB;" d="M318.58,552.45h-32.415c-0.829,0-1.5-0.672-1.5-1.5v-157.06c0-0.828,0.671-1.5,1.5-1.5h32.415
			c0.829,0,1.5,0.672,1.5,1.5v157.06C320.08,551.778,319.409,552.45,318.58,552.45z M287.665,549.45h29.415v-154.06h-29.415V549.45z
			"/>
		<path style="fill:#268EEB;" d="M308.175,384.881h-15.07c-0.829,0-1.5-0.672-1.5-1.5v-41.922c0-0.829,0.671-1.5,1.5-1.5h15.07
			c0.829,0,1.5,0.671,1.5,1.5v41.922C309.675,384.209,309.003,384.881,308.175,384.881z M294.604,381.881h12.07v-38.922h-12.07
			V381.881z"/>
		<path style="fill:#268EEB;" d="M322.05,327.252h-13.875c-0.829,0-1.5-0.671-1.5-1.5v-36.605c0-0.829,0.671-1.5,1.5-1.5h13.875
			c0.829,0,1.5,0.671,1.5,1.5v36.605C323.55,326.581,322.878,327.252,322.05,327.252z M309.675,324.252h10.875v-33.605h-10.875
			V324.252z"/>
		<path style="fill:#268EEB;" d="M322.05,327.252h-28.945c-0.829,0-1.5-0.671-1.5-1.5v-8.093c0-0.829,0.671-1.5,1.5-1.5h28.945
			c0.829,0,1.5,0.671,1.5,1.5v8.093C323.55,326.581,322.878,327.252,322.05,327.252z M294.604,324.252h25.945v-5.093h-25.945
			V324.252z"/>
		<path style="fill:#268EEB;" d="M322.05,384.881h-28.945c-0.829,0-1.5-0.672-1.5-1.5V372.87c0-0.828,0.671-1.5,1.5-1.5h28.945
			c0.829,0,1.5,0.672,1.5,1.5v10.511C323.55,384.209,322.878,384.881,322.05,384.881z M294.604,381.881h25.945v-7.511h-25.945
			V381.881z"/>
		<path style="fill:#268EEB;" d="M307.577,280.137h-10.648c-0.829,0-1.5-0.671-1.5-1.5v-52.312c0-0.829,0.671-1.5,1.5-1.5h10.648
			c0.829,0,1.5,0.671,1.5,1.5v52.312C309.077,279.465,308.406,280.137,307.577,280.137z M298.429,277.137h7.648v-49.312h-7.648
			V277.137z"/>
		<path style="fill:#268EEB;" d="M318.221,280.137h-21.292c-0.829,0-1.5-0.671-1.5-1.5v-31.413c0-0.829,0.671-1.5,1.5-1.5h21.292
			c0.829,0,1.5,0.671,1.5,1.5v31.413C319.721,279.465,319.049,280.137,318.221,280.137z M298.429,277.137h18.292v-28.413h-18.292
			V277.137z"/>
		<path style="fill:#268EEB;" d="M308.175,222.509h-10.884c-0.829,0-1.5-0.671-1.5-1.5v-26.095c0-0.829,0.671-1.5,1.5-1.5h10.884
			c0.829,0,1.5,0.671,1.5,1.5v26.095C309.675,221.837,309.003,222.509,308.175,222.509z M298.791,219.509h7.884v-23.095h-7.884
			V219.509z"/>
		<path style="fill:#268EEB;" d="M317.862,222.509h-20.571c-0.829,0-1.5-0.671-1.5-1.5v-8.821c0-0.829,0.671-1.5,1.5-1.5h20.571
			c0.829,0,1.5,0.671,1.5,1.5v8.821C319.362,221.837,318.691,222.509,317.862,222.509z M298.791,219.509h17.571v-5.821h-17.571
			V219.509z"/>
		<path style="fill:#268EEB;" d="M317.862,222.509h-20.571c-0.829,0-1.5-0.671-1.5-1.5v-15.707c0-0.829,0.671-1.5,1.5-1.5h20.571
			c0.829,0,1.5,0.671,1.5,1.5v15.707C319.362,221.837,318.691,222.509,317.862,222.509z M298.791,219.509h17.571v-12.707h-17.571
			V219.509z"/>
		<path style="fill:#268EEB;" d="M516.904,552.45h-42.825c-0.828,0-1.5-0.672-1.5-1.5v-157.06c0-0.828,0.672-1.5,1.5-1.5h42.825
			c0.828,0,1.5,0.672,1.5,1.5v157.06C518.404,551.778,517.732,552.45,516.904,552.45z M475.579,549.45h39.825v-154.06h-39.825
			V549.45z"/>
		<path style="fill:#268EEB;" d="M524.557,573.471h-59.567c-0.828,0-1.5-0.672-1.5-1.5v-10.509c0-0.828,0.672-1.5,1.5-1.5h59.567
			c0.828,0,1.5,0.672,1.5,1.5v10.509C526.057,572.799,525.385,573.471,524.557,573.471z M466.489,570.471h56.567v-7.509h-56.567
			V570.471z"/>
		<path style="fill:#268EEB;" d="M521.21,395.391h-51.436c-0.828,0-1.5-0.672-1.5-1.5v-10.51c0-0.828,0.672-1.5,1.5-1.5h51.436
			c0.828,0,1.5,0.672,1.5,1.5v10.51C522.71,394.719,522.038,395.391,521.21,395.391z M471.274,392.391h48.436v-7.51h-48.436V392.391
			z"/>
		<path style="fill:#268EEB;" d="M509.964,384.881H481.02c-0.828,0-1.5-0.672-1.5-1.5v-41.922c0-0.829,0.672-1.5,1.5-1.5h28.944
			c0.828,0,1.5,0.671,1.5,1.5v41.922C511.464,384.209,510.792,384.881,509.964,384.881z M482.52,381.881h25.944v-38.922H482.52
			V381.881z"/>
		<path style="fill:#268EEB;" d="M516.904,290.647h-41.51c-0.828,0-1.5-0.671-1.5-1.5v-10.511c0-0.829,0.672-1.5,1.5-1.5h41.51
			c0.828,0,1.5,0.671,1.5,1.5v10.511C518.404,289.976,517.732,290.647,516.904,290.647z M476.895,287.647h38.51v-7.511h-38.51
			V287.647z"/>
		<path style="fill:#268EEB;" d="M509.964,327.252H481.02c-0.828,0-1.5-0.671-1.5-1.5v-36.605c0-0.829,0.672-1.5,1.5-1.5h28.944
			c0.828,0,1.5,0.671,1.5,1.5v36.605C511.464,326.581,510.792,327.252,509.964,327.252z M482.52,324.252h25.944v-33.605H482.52
			V324.252z"/>
		<path style="fill:#268EEB;" d="M506.136,280.137h-21.288c-0.828,0-1.5-0.671-1.5-1.5v-52.312c0-0.829,0.672-1.5,1.5-1.5h21.288
			c0.828,0,1.5,0.671,1.5,1.5v52.312C507.636,279.465,506.964,280.137,506.136,280.137z M486.348,277.137h18.288v-49.312h-18.288
			V277.137z"/>
		<path style="fill:#268EEB;" d="M505.778,222.509h-20.571c-0.828,0-1.5-0.671-1.5-1.5v-26.095c0-0.829,0.672-1.5,1.5-1.5h20.571
			c0.828,0,1.5,0.671,1.5,1.5v26.095C507.278,221.837,506.606,222.509,505.778,222.509z M486.707,219.509h17.571v-23.095h-17.571
			V219.509z"/>
		<path style="fill:#268EEB;" d="M516.904,342.959h-42.825c-0.828,0-1.5-0.671-1.5-1.5v-10.391c0-0.829,0.672-1.5,1.5-1.5h42.825
			c0.828,0,1.5,0.671,1.5,1.5v10.391C518.404,342.288,517.732,342.959,516.904,342.959z M475.579,339.959h39.825v-7.391h-39.825
			V339.959z"/>
		<path style="fill:#268EEB;" d="M514.032,227.824h-35.885c-0.828,0-1.5-0.671-1.5-1.5v-5.315c0-0.829,0.672-1.5,1.5-1.5h35.885
			c0.828,0,1.5,0.671,1.5,1.5v5.315C515.532,227.153,514.86,227.824,514.032,227.824z M479.647,224.824h32.885v-2.315h-32.885
			V224.824z"/>
		<path style="fill:#268EEB;" d="M516.904,332.568h-42.825c-0.828,0-1.5-0.671-1.5-1.5v-5.316c0-0.829,0.672-1.5,1.5-1.5h42.825
			c0.828,0,1.5,0.671,1.5,1.5v5.316C518.404,331.897,517.732,332.568,516.904,332.568z M475.579,329.568h39.825v-2.316h-39.825
			V329.568z"/>
		<path style="fill:#268EEB;" d="M511.04,196.414h-29.901c-0.828,0-1.5-0.671-1.5-1.5v-5.316c0-0.829,0.672-1.5,1.5-1.5h29.901
			c0.828,0,1.5,0.671,1.5,1.5v5.316C512.54,195.743,511.868,196.414,511.04,196.414z M482.639,193.414h26.901v-2.316h-26.901
			V193.414z"/>
		<path style="fill:#268EEB;" d="M521.21,390.077h-51.436c-0.828,0-1.5-0.672-1.5-1.5v-5.196c0-0.828,0.672-1.5,1.5-1.5h51.436
			c0.828,0,1.5,0.672,1.5,1.5v5.196C522.71,389.405,522.038,390.077,521.21,390.077z M471.274,387.077h48.436v-2.196h-48.436
			V387.077z"/>
		<path style="fill:#268EEB;" d="M484.848,552.45h-10.769c-0.828,0-1.5-0.672-1.5-1.5v-157.06c0-0.828,0.672-1.5,1.5-1.5h10.769
			c0.828,0,1.5,0.672,1.5,1.5v157.06C486.348,551.778,485.676,552.45,484.848,552.45z M475.579,549.45h7.769v-154.06h-7.769V549.45z
			"/>
		<path style="fill:#268EEB;" d="M496.09,552.45h-22.011c-0.828,0-1.5-0.672-1.5-1.5v-157.06c0-0.828,0.672-1.5,1.5-1.5h22.011
			c0.828,0,1.5,0.672,1.5,1.5v157.06C497.59,551.778,496.918,552.45,496.09,552.45z M475.579,549.45h19.011v-154.06h-19.011V549.45z
			"/>
		<path style="fill:#268EEB;" d="M506.017,552.45h-31.938c-0.828,0-1.5-0.672-1.5-1.5v-157.06c0-0.828,0.672-1.5,1.5-1.5h31.938
			c0.828,0,1.5,0.672,1.5,1.5v157.06C507.517,551.778,506.845,552.45,506.017,552.45z M475.579,549.45h28.938v-154.06h-28.938
			V549.45z"/>
		<path style="fill:#268EEB;" d="M496.09,384.881h-15.07c-0.828,0-1.5-0.672-1.5-1.5v-41.922c0-0.829,0.672-1.5,1.5-1.5h15.07
			c0.828,0,1.5,0.671,1.5,1.5v41.922C497.59,384.209,496.918,384.881,496.09,384.881z M482.52,381.881h12.07v-38.922h-12.07V381.881
			z"/>
		<path style="fill:#268EEB;" d="M509.964,327.252H496.09c-0.828,0-1.5-0.671-1.5-1.5v-36.605c0-0.829,0.672-1.5,1.5-1.5h13.874
			c0.828,0,1.5,0.671,1.5,1.5v36.605C511.464,326.581,510.792,327.252,509.964,327.252z M497.59,324.252h10.874v-33.605H497.59
			V324.252z"/>
		<path style="fill:#268EEB;" d="M509.964,327.252H481.02c-0.828,0-1.5-0.671-1.5-1.5v-7.853c0-0.829,0.672-1.5,1.5-1.5h28.944
			c0.828,0,1.5,0.671,1.5,1.5v7.853C511.464,326.581,510.792,327.252,509.964,327.252z M482.52,324.252h25.944v-4.853H482.52
			V324.252z"/>
		<path style="fill:#268EEB;" d="M509.964,384.881H481.02c-0.828,0-1.5-0.672-1.5-1.5V372.87c0-0.828,0.672-1.5,1.5-1.5h28.944
			c0.828,0,1.5,0.672,1.5,1.5v10.511C511.464,384.209,510.792,384.881,509.964,384.881z M482.52,381.881h25.944v-7.511H482.52
			V381.881z"/>
		<path style="fill:#268EEB;" d="M495.492,280.137h-10.645c-0.828,0-1.5-0.671-1.5-1.5v-52.312c0-0.829,0.672-1.5,1.5-1.5h10.645
			c0.828,0,1.5,0.671,1.5,1.5v52.312C496.992,279.465,496.32,280.137,495.492,280.137z M486.348,277.137h7.645v-49.312h-7.645
			V277.137z"/>
		<path style="fill:#268EEB;" d="M506.136,280.137h-21.288c-0.828,0-1.5-0.671-1.5-1.5v-31.413c0-0.829,0.672-1.5,1.5-1.5h21.288
			c0.828,0,1.5,0.671,1.5,1.5v31.413C507.636,279.465,506.964,280.137,506.136,280.137z M486.348,277.137h18.288v-28.413h-18.288
			V277.137z"/>
		<path style="fill:#268EEB;" d="M496.09,222.509h-10.883c-0.828,0-1.5-0.671-1.5-1.5v-26.095c0-0.829,0.672-1.5,1.5-1.5h10.883
			c0.828,0,1.5,0.671,1.5,1.5v26.095C497.59,221.837,496.918,222.509,496.09,222.509z M486.707,219.509h7.883v-23.095h-7.883
			V219.509z"/>
		<path style="fill:#268EEB;" d="M505.778,222.509h-20.571c-0.828,0-1.5-0.671-1.5-1.5v-8.821c0-0.829,0.672-1.5,1.5-1.5h20.571
			c0.828,0,1.5,0.671,1.5,1.5v8.821C507.278,221.837,506.606,222.509,505.778,222.509z M486.707,219.509h17.571v-5.821h-17.571
			V219.509z"/>
		<path style="fill:#268EEB;" d="M505.778,222.509h-20.571c-0.828,0-1.5-0.671-1.5-1.5v-15.707c0-0.829,0.672-1.5,1.5-1.5h20.571
			c0.828,0,1.5,0.671,1.5,1.5v15.707C507.278,221.837,506.606,222.509,505.778,222.509z M486.707,219.509h17.571v-12.707h-17.571
			V219.509z"/>
		<path style="fill:#268EEB;" d="M474.079,259.235h-145.09c-0.829,0-1.5-0.671-1.5-1.5v-21.022c0-0.829,0.671-1.5,1.5-1.5h145.09
			c0.828,0,1.5,0.671,1.5,1.5v21.022C475.579,258.564,474.907,259.235,474.079,259.235z M330.489,256.235h142.09v-18.022h-142.09
			V256.235z"/>
		<path style="fill:#268EEB;" d="M266.669,573.471h-41.39c-0.829,0-1.5-0.672-1.5-1.5v-94.355c0-0.828,0.671-1.5,1.5-1.5h41.39
			c0.829,0,1.5,0.672,1.5,1.5v94.355C268.169,572.799,267.498,573.471,266.669,573.471z M226.779,570.471h38.39v-91.355h-38.39
			V570.471z"/>
		<path style="fill:#268EEB;" d="M234.37,503.523c-2.627,0-4.847-2.236-4.847-4.883c0-2.693,2.174-4.885,4.847-4.885
			c2.765,0,4.85,2.1,4.85,4.885C239.22,501.333,237.044,503.523,234.37,503.523z M234.37,496.756c-1.018,0-1.847,0.846-1.847,1.885
			c0,0.985,0.88,1.883,1.847,1.883c1.02,0,1.85-0.845,1.85-1.883C236.22,497.531,235.459,496.756,234.37,496.756z"/>
		<path style="fill:#268EEB;" d="M257.817,503.523c-2.629,0-4.85-2.236-4.85-4.883c0-2.693,2.175-4.885,4.85-4.885
			c2.763,0,4.847,2.1,4.847,4.885C262.664,501.333,260.49,503.523,257.817,503.523z M257.817,496.756c-1.02,0-1.85,0.846-1.85,1.885
			c0,0.985,0.882,1.883,1.85,1.883c1.018,0,1.847-0.845,1.847-1.883C259.664,497.531,258.905,496.756,257.817,496.756z"/>
		<path style="fill:#268EEB;" d="M516.904,552.45h-10.888c-0.828,0-1.5-0.672-1.5-1.5v-157.06c0-0.828,0.672-1.5,1.5-1.5h10.888
			c0.828,0,1.5,0.672,1.5,1.5v157.06C518.404,551.778,517.732,552.45,516.904,552.45z M507.517,549.45h7.888v-154.06h-7.888V549.45z
			"/>
		<path style="fill:#268EEB;" d="M577.665,573.471h-41.504c-0.828,0-1.5-0.672-1.5-1.5v-94.355c0-0.828,0.672-1.5,1.5-1.5h41.504
			c0.828,0,1.5,0.672,1.5,1.5v94.355C579.165,572.799,578.493,573.471,577.665,573.471z M537.661,570.471h38.504v-91.355h-38.504
			V570.471z"/>
		<path style="fill:#268EEB;" d="M568.456,503.523c-2.628,0-4.848-2.236-4.848-4.883c0-2.693,2.175-4.885,4.848-4.885
			c2.766,0,4.85,2.1,4.85,4.885C573.307,501.333,571.131,503.523,568.456,503.523z M568.456,496.756
			c-1.019,0-1.848,0.846-1.848,1.885c0,0.985,0.881,1.883,1.848,1.883c1.02,0,1.85-0.845,1.85-1.883
			C570.307,497.531,569.546,496.756,568.456,496.756z"/>
		<path style="fill:#268EEB;" d="M545.012,503.523c-2.629,0-4.851-2.236-4.851-4.883c0-2.693,2.176-4.885,4.851-4.885
			c2.721,0,4.852,2.146,4.852,4.885C549.863,501.333,547.686,503.523,545.012,503.523z M545.012,496.756
			c-1.02,0-1.851,0.846-1.851,1.885c0,0.985,0.882,1.883,1.851,1.883c1.021,0,1.852-0.845,1.852-1.883
			C546.863,497.531,546.102,496.756,545.012,496.756z"/>
		<path style="fill:#268EEB;" d="M349.68,353.469h-10.405c-0.829,0-1.5-0.671-1.5-1.5v-34.31c0-0.829,0.671-1.5,1.5-1.5h10.405
			c0.829,0,1.5,0.671,1.5,1.5v34.31C351.18,352.798,350.508,353.469,349.68,353.469z M340.774,350.469h7.405v-31.31h-7.405V350.469z
			"/>
		<path style="fill:#268EEB;" d="M360.089,353.469H349.68c-0.829,0-1.5-0.671-1.5-1.5v-34.31c0-0.829,0.671-1.5,1.5-1.5h10.409
			c0.829,0,1.5,0.671,1.5,1.5v34.31C361.589,352.798,360.917,353.469,360.089,353.469z M351.18,350.469h7.409v-31.31h-7.409V350.469
			z"/>
		<path style="fill:#268EEB;" d="M370.375,353.469h-10.286c-0.829,0-1.5-0.671-1.5-1.5v-34.31c0-0.829,0.671-1.5,1.5-1.5h10.286
			c0.829,0,1.5,0.671,1.5,1.5v34.31C371.875,352.798,371.204,353.469,370.375,353.469z M361.589,350.469h7.286v-31.31h-7.286
			V350.469z"/>
		<path style="fill:#268EEB;" d="M380.78,353.469h-10.405c-0.829,0-1.5-0.671-1.5-1.5v-34.31c0-0.829,0.671-1.5,1.5-1.5h10.405
			c0.829,0,1.5,0.671,1.5,1.5v34.31C382.28,352.798,381.609,353.469,380.78,353.469z M371.875,350.469h7.405v-31.31h-7.405V350.469z
			"/>
		<path style="fill:#268EEB;" d="M391.188,353.469H380.78c-0.829,0-1.5-0.671-1.5-1.5v-34.31c0-0.829,0.671-1.5,1.5-1.5h10.408
			c0.829,0,1.5,0.671,1.5,1.5v34.31C392.688,352.798,392.017,353.469,391.188,353.469z M382.28,350.469h7.408v-31.31h-7.408V350.469
			z"/>
		<path style="fill:#268EEB;" d="M401.475,353.469h-10.286c-0.829,0-1.5-0.671-1.5-1.5v-34.31c0-0.829,0.671-1.5,1.5-1.5h10.286
			c0.828,0,1.5,0.671,1.5,1.5v34.31C402.975,352.798,402.303,353.469,401.475,353.469z M392.688,350.469h7.286v-31.31h-7.286
			V350.469z"/>
		<path style="fill:#268EEB;" d="M411.88,353.469h-10.405c-0.829,0-1.5-0.671-1.5-1.5v-34.31c0-0.829,0.671-1.5,1.5-1.5h10.405
			c0.828,0,1.5,0.671,1.5,1.5v34.31C413.38,352.798,412.708,353.469,411.88,353.469z M402.975,350.469h7.405v-31.31h-7.405V350.469z
			"/>
		<path style="fill:#268EEB;" d="M422.29,353.469h-10.41c-0.828,0-1.5-0.671-1.5-1.5v-34.31c0-0.829,0.672-1.5,1.5-1.5h10.41
			c0.828,0,1.5,0.671,1.5,1.5v34.31C423.79,352.798,423.118,353.469,422.29,353.469z M413.38,350.469h7.41v-31.31h-7.41V350.469z"/>
		<path style="fill:#268EEB;" d="M432.694,353.469H422.29c-0.828,0-1.5-0.671-1.5-1.5v-34.31c0-0.829,0.672-1.5,1.5-1.5h10.404
			c0.828,0,1.5,0.671,1.5,1.5v34.31C434.194,352.798,433.522,353.469,432.694,353.469z M423.79,350.469h7.404v-31.31h-7.404V350.469
			z"/>
		<path style="fill:#268EEB;" d="M442.979,353.469h-10.285c-0.828,0-1.5-0.671-1.5-1.5v-34.31c0-0.829,0.672-1.5,1.5-1.5h10.285
			c0.828,0,1.5,0.671,1.5,1.5v34.31C444.479,352.798,443.808,353.469,442.979,353.469z M434.194,350.469h7.285v-31.31h-7.285
			V350.469z"/>
		<path style="fill:#268EEB;" d="M453.39,353.469h-10.41c-0.828,0-1.5-0.671-1.5-1.5v-34.31c0-0.829,0.672-1.5,1.5-1.5h10.41
			c0.828,0,1.5,0.671,1.5,1.5v34.31C454.89,352.798,454.218,353.469,453.39,353.469z M444.479,350.469h7.41v-31.31h-7.41V350.469z"
			/>
		<path style="fill:#268EEB;" d="M463.794,353.469H453.39c-0.828,0-1.5-0.671-1.5-1.5v-34.31c0-0.829,0.672-1.5,1.5-1.5h10.404
			c0.828,0,1.5,0.671,1.5,1.5v34.31C465.294,352.798,464.622,353.469,463.794,353.469z M454.89,350.469h7.404v-31.31h-7.404V350.469
			z"/>
		<path style="fill:#268EEB;" d="M192.147,395.391h-6.338c-0.773,0-1.419-0.587-1.493-1.355l-2.036-21.021
			c-0.041-0.421,0.098-0.84,0.382-1.152c0.285-0.314,0.688-0.492,1.111-0.492h10.405c0.423,0,0.826,0.179,1.11,0.492
			c0.285,0.313,0.423,0.73,0.383,1.152l-2.031,21.021C193.566,394.804,192.92,395.391,192.147,395.391z M187.171,392.391h3.614
			l1.741-18.021h-7.101L187.171,392.391z"/>
		<path style="fill:#268EEB;" d="M207.699,395.391h-6.342c-0.772,0-1.419-0.587-1.493-1.355l-2.031-21.021
			c-0.04-0.422,0.098-0.84,0.383-1.152c0.284-0.314,0.688-0.492,1.11-0.492h10.405c0.423,0,0.826,0.179,1.11,0.492
			c0.285,0.313,0.423,0.73,0.383,1.152l-2.032,21.021C209.118,394.804,208.472,395.391,207.699,395.391z M202.719,392.391h3.618
			l1.742-18.021h-7.102L202.719,392.391z"/>
		<path style="fill:#268EEB;" d="M223.247,395.391h-6.337c-0.773,0-1.419-0.587-1.493-1.355l-2.036-21.021
			c-0.041-0.421,0.098-0.84,0.382-1.152c0.285-0.314,0.688-0.492,1.111-0.492h10.405c0.423,0,0.826,0.179,1.11,0.492
			c0.285,0.313,0.423,0.73,0.383,1.152l-2.032,21.021C224.665,394.804,224.02,395.391,223.247,395.391z M218.272,392.391h3.613
			l1.742-18.021h-7.101L218.272,392.391z"/>
		<path style="fill:#268EEB;" d="M238.796,395.391h-6.338c-0.772,0-1.419-0.587-1.493-1.355l-2.031-21.021
			c-0.04-0.422,0.098-0.84,0.383-1.152c0.284-0.314,0.688-0.492,1.11-0.492h10.404c0.423,0,0.826,0.179,1.11,0.492
			c0.285,0.313,0.423,0.732,0.383,1.152l-2.035,21.021C240.214,394.804,239.568,395.391,238.796,395.391z M233.82,392.391h3.614
			l1.745-18.021h-7.1L233.82,392.391z"/>
		<path style="fill:#268EEB;" d="M254.348,395.391h-6.338c-0.773,0-1.419-0.587-1.493-1.355l-2.035-21.021
			c-0.041-0.421,0.098-0.84,0.383-1.152c0.284-0.314,0.688-0.492,1.11-0.492h10.405c0.423,0,0.826,0.179,1.11,0.492
			c0.285,0.313,0.423,0.73,0.383,1.152l-2.032,21.021C255.766,394.804,255.12,395.391,254.348,395.391z M249.372,392.391h3.614
			l1.742-18.021h-7.101L249.372,392.391z"/>
		<path style="fill:#268EEB;" d="M269.896,395.391h-6.338c-0.772,0-1.419-0.587-1.493-1.355l-2.031-21.021
			c-0.04-0.422,0.098-0.84,0.383-1.152c0.284-0.314,0.688-0.492,1.11-0.492h10.405c0.423,0,0.826,0.179,1.111,0.492
			c0.284,0.313,0.423,0.732,0.382,1.152l-2.036,21.021C271.314,394.804,270.668,395.391,269.896,395.391z M264.919,392.391h3.614
			l1.746-18.021h-7.101L264.919,392.391z"/>
		<path style="fill:#268EEB;" d="M539.151,395.391h-6.341c-0.772,0-1.419-0.587-1.493-1.355l-2.032-21.021
			c-0.041-0.422,0.099-0.84,0.383-1.152c0.284-0.314,0.687-0.492,1.11-0.492h10.405c0.423,0,0.826,0.179,1.11,0.492
			c0.284,0.313,0.424,0.73,0.383,1.152l-2.032,21.021C540.57,394.804,539.924,395.391,539.151,395.391z M534.173,392.391h3.616
			l1.742-18.021h-7.101L534.173,392.391z"/>
		<path style="fill:#268EEB;" d="M554.701,395.391h-6.338c-0.773,0-1.419-0.587-1.493-1.355l-2.036-21.021
			c-0.041-0.421,0.099-0.84,0.383-1.152c0.284-0.314,0.688-0.492,1.11-0.492h10.409c0.423,0,0.826,0.179,1.11,0.492
			c0.284,0.313,0.424,0.732,0.383,1.152l-2.035,21.021C556.12,394.804,555.474,395.391,554.701,395.391z M549.725,392.391h3.615
			l1.744-18.021h-7.104L549.725,392.391z"/>
		<path style="fill:#268EEB;" d="M570.252,395.391h-6.342c-0.772,0-1.419-0.587-1.493-1.355l-2.032-21.021
			c-0.041-0.422,0.099-0.84,0.383-1.152c0.284-0.314,0.688-0.492,1.11-0.492h10.406c0.423,0,0.826,0.179,1.11,0.492
			c0.284,0.313,0.424,0.73,0.383,1.152l-2.032,21.021C571.671,394.804,571.024,395.391,570.252,395.391z M565.272,392.391h3.617
			l1.742-18.021h-7.102L565.272,392.391z"/>
		<path style="fill:#268EEB;" d="M585.8,395.391h-6.338c-0.772,0-1.419-0.587-1.493-1.355l-2.036-21.021
			c-0.041-0.421,0.099-0.84,0.383-1.152c0.284-0.314,0.688-0.492,1.11-0.492h10.409c0.423,0,0.826,0.179,1.11,0.492
			c0.284,0.313,0.424,0.732,0.383,1.152l-2.035,21.021C587.219,394.804,586.572,395.391,585.8,395.391z M580.823,392.391h3.615
			l1.744-18.021h-7.104L580.823,392.391z"/>
		<path style="fill:#268EEB;" d="M601.352,395.391h-6.342c-0.772,0-1.419-0.587-1.493-1.355l-2.032-21.021
			c-0.041-0.422,0.099-0.84,0.383-1.152c0.284-0.314,0.688-0.492,1.11-0.492h10.406c0.423,0,0.826,0.179,1.11,0.492
			c0.284,0.313,0.424,0.73,0.383,1.152l-2.032,21.021C602.771,394.804,602.125,395.391,601.352,395.391z M596.373,392.391h3.617
			l1.742-18.021h-7.102L596.373,392.391z"/>
		<path style="fill:#268EEB;" d="M616.9,395.391h-6.338c-0.773,0-1.419-0.587-1.493-1.355l-2.036-21.021
			c-0.041-0.421,0.099-0.84,0.383-1.152c0.284-0.314,0.687-0.492,1.11-0.492h10.409c0.423,0,0.826,0.179,1.11,0.492
			c0.284,0.313,0.424,0.732,0.383,1.152l-2.035,21.021C618.319,394.804,617.673,395.391,616.9,395.391z M611.924,392.391h3.615
			l1.744-18.021h-7.104L611.924,392.391z"/>
		<path style="fill:#268EEB;" d="M349.68,433.328c-4.849,0-8.794-3.979-8.794-8.87c0-4.974,3.863-8.87,8.794-8.87
			c4.934,0,8.798,3.897,8.798,8.87C358.477,429.349,354.531,433.328,349.68,433.328z M349.68,418.588
			c-3.249,0-5.794,2.578-5.794,5.87c0,3.236,2.599,5.87,5.794,5.87c3.197,0,5.798-2.634,5.798-5.87
			C355.477,421.166,352.931,418.588,349.68,418.588z"/>
		<path style="fill:#268EEB;" d="M453.39,433.328c-4.852,0-8.799-3.979-8.799-8.87c0-4.974,3.865-8.87,8.799-8.87
			c4.931,0,8.793,3.897,8.793,8.87C462.183,429.349,458.238,433.328,453.39,433.328z M453.39,418.588
			c-3.252,0-5.799,2.578-5.799,5.87c0,3.236,2.602,5.87,5.799,5.87c3.194,0,5.793-2.634,5.793-5.87
			C459.183,421.166,456.638,418.588,453.39,418.588z"/>
		<g>
			<path style="fill:#268EEB;" d="M163.203,363.617c-0.829,0-1.5-0.671-1.5-1.5v-10.148c0-0.829,0.671-1.5,1.5-1.5h129.902
				c0.829,0,1.5,0.671,1.5,1.5c0,0.829-0.671,1.5-1.5,1.5H164.703v8.648C164.703,362.946,164.031,363.617,163.203,363.617z"/>
		</g>
		<g>
			<path style="fill:#268EEB;" d="M481.02,353.469H322.05c-0.829,0-1.5-0.671-1.5-1.5c0-0.829,0.671-1.5,1.5-1.5H481.02
				c0.828,0,1.5,0.671,1.5,1.5C482.52,352.798,481.848,353.469,481.02,353.469z"/>
		</g>
		<g>
			<path style="fill:#268EEB;" d="M639.746,363.979c-0.828,0-1.5-0.672-1.5-1.5v-9.011H509.964c-0.828,0-1.5-0.671-1.5-1.5
				c0-0.829,0.672-1.5,1.5-1.5h129.782c0.828,0,1.5,0.671,1.5,1.5v10.511C641.246,363.308,640.574,363.979,639.746,363.979z"/>
		</g>
		<g>
			<path style="fill:#268EEB;" d="M183.774,300.794c-0.829,0-1.5-0.671-1.5-1.5v-10.146c0-0.829,0.671-1.5,1.5-1.5h109.331
				c0.829,0,1.5,0.671,1.5,1.5c0,0.829-0.671,1.5-1.5,1.5H185.274v8.646C185.274,300.123,184.602,300.794,183.774,300.794z"/>
		</g>
		<g>
			<path style="fill:#268EEB;" d="M619.294,301.038c-0.828,0-1.5-0.671-1.5-1.5v-8.891H322.05c-0.829,0-1.5-0.671-1.5-1.5
				c0-0.829,0.671-1.5,1.5-1.5h297.244c0.828,0,1.5,0.671,1.5,1.5v10.391C620.794,300.367,620.122,301.038,619.294,301.038z"/>
		</g>
		<g>
			<path style="fill:#268EEB;" d="M474.079,395.391H328.99c-0.829,0-1.5-0.672-1.5-1.5c0-0.828,0.671-1.5,1.5-1.5h145.089
				c0.828,0,1.5,0.672,1.5,1.5C475.579,394.719,474.907,395.391,474.079,395.391z"/>
		</g>
		<g>
			<path style="fill:#268EEB;" d="M267.387,531.549h-6.1c-0.829,0-1.5-0.672-1.5-1.5v-9.008h-3.527c-0.829,0-1.5-0.672-1.5-1.5
				v-2.658c-0.324-8.161-1.487-11.317-8.805-16.436c-7.363,4.916-8.538,8.186-8.647,16.213v2.881c0,0.828-0.671,1.5-1.5,1.5h-4.001
				v9.008c0,0.828-0.671,1.5-1.5,1.5h-4.187c-0.829,0-1.5-0.672-1.5-1.5c0-0.828,0.671-1.5,1.5-1.5h2.687v-9.008
				c0-0.828,0.671-1.5,1.5-1.5h4.001v-1.401c0.127-9.285,1.713-13.365,10.854-19.26c0.506-0.323,1.157-0.318,1.655,0.02
				c8.943,6.063,10.576,10.168,10.942,19.424l0,1.218h3.528c0.829,0,1.5,0.672,1.5,1.5v9.008h4.6c0.829,0,1.5,0.672,1.5,1.5
				C268.887,530.877,268.216,531.549,267.387,531.549z"/>
		</g>
		<g>
			<path style="fill:#268EEB;" d="M340.352,500.379c-0.047,0-0.094-0.002-0.142-0.007c-0.825-0.077-1.431-0.808-1.354-1.633
				c1.943-20.767,6.829-36.419,15.378-49.258c9.819-14.749,25.074-26.545,46.635-36.062c0.398-0.175,0.852-0.17,1.247,0.016
				c38.676,18.269,56.457,42.762,61.372,84.542c0.098,0.822-0.491,1.567-1.314,1.664c-0.814,0.108-1.568-0.491-1.664-1.315
				c-4.752-40.383-21.876-64.152-59.056-81.885c-44.912,20.032-56.329,47.512-59.609,82.576
				C341.771,499.796,341.117,500.379,340.352,500.379z"/>
		</g>
		<g>
			<path style="fill:#268EEB;" d="M619.294,573.471h-435.52c-0.829,0-1.5-0.672-1.5-1.5s0.671-1.5,1.5-1.5h435.52
				c0.828,0,1.5,0.672,1.5,1.5S620.122,573.471,619.294,573.471z"/>
		</g>
		<g>
			<path style="fill:#268EEB;" d="M287.48,572.749c-0.829,0-1.5-0.672-1.5-1.5v-9.425c0-0.377,0.142-0.741,0.398-1.018
				l10.051-10.874c0.563-0.607,1.511-0.646,2.12-0.083c0.608,0.563,0.646,1.512,0.083,2.12l-9.652,10.442v8.838
				C288.98,572.077,288.309,572.749,287.48,572.749z"/>
		</g>
		<g>
			<path style="fill:#268EEB;" d="M276.836,562.843c-0.357,0-0.715-0.127-1.001-0.384c-0.617-0.554-0.668-1.502-0.114-2.118
				l9.329-10.393c0.285-0.317,0.69-0.498,1.116-0.498h42.824c0.463,0,0.9,0.214,1.184,0.579l7.891,10.149
				c0.509,0.654,0.391,1.597-0.263,2.105c-0.655,0.509-1.597,0.39-2.105-0.264l-7.44-9.57h-41.421l-8.882,9.895
				C277.656,562.675,277.247,562.843,276.836,562.843z"/>
		</g>
		<g>
			<path style="fill:#268EEB;" d="M328.99,572.749c-0.829,0-1.5-0.672-1.5-1.5v-8.833l-9.767-10.441
				c-0.566-0.604-0.534-1.554,0.071-2.12c0.605-0.566,1.554-0.533,2.12,0.071l10.171,10.874c0.26,0.277,0.404,0.644,0.404,1.024
				v9.425C330.49,572.077,329.818,572.749,328.99,572.749z"/>
		</g>
		<g>
			<path style="fill:#268EEB;" d="M323.966,191.098h-31.582c-0.829,0-1.5-0.671-1.5-1.5c0-0.829,0.671-1.5,1.5-1.5h31.582
				c0.829,0,1.5,0.671,1.5,1.5C325.466,190.426,324.795,191.098,323.966,191.098z"/>
		</g>
		<g>
			<path style="fill:#268EEB;" d="M316.19,191.098c-0.829,0-1.5-0.671-1.5-1.5c0-9.939-3.433-16.865-6.515-16.865
				c-3.082,0-6.516,6.926-6.516,16.865c0,0.829-0.671,1.5-1.5,1.5c-0.829,0-1.5-0.671-1.5-1.5c0-11.325,4.091-19.865,9.516-19.865
				c5.424,0,9.515,8.54,9.515,19.865C317.69,190.426,317.019,191.098,316.19,191.098z"/>
		</g>
		<g>
			<path style="fill:#268EEB;" d="M308.175,172.974c-0.829,0-1.5-0.671-1.5-1.5v-8.938c0-0.829,0.671-1.5,1.5-1.5s1.5,0.671,1.5,1.5
				v8.938C309.675,172.302,309.004,172.974,308.175,172.974z"/>
		</g>
		<g>
			<path style="fill:#268EEB;" d="M328.99,405.3h-42.824c-0.829,0-1.5-0.672-1.5-1.5s0.671-1.5,1.5-1.5h42.824
				c0.829,0,1.5,0.672,1.5,1.5S329.818,405.3,328.99,405.3z"/>
		</g>
		<g>
			<path style="fill:#268EEB;" d="M328.99,427.286h-42.824c-0.829,0-1.5-0.672-1.5-1.5c0-0.828,0.671-1.5,1.5-1.5h42.824
				c0.829,0,1.5,0.672,1.5,1.5C330.49,426.614,329.818,427.286,328.99,427.286z"/>
		</g>
		<g>
			<path style="fill:#268EEB;" d="M328.99,447.701h-42.824c-0.829,0-1.5-0.672-1.5-1.5c0-0.828,0.671-1.5,1.5-1.5h42.824
				c0.829,0,1.5,0.672,1.5,1.5C330.49,447.029,329.818,447.701,328.99,447.701z"/>
		</g>
		<g>
			<path style="fill:#268EEB;" d="M328.99,468.726h-42.824c-0.829,0-1.5-0.672-1.5-1.5c0-0.828,0.671-1.5,1.5-1.5h42.824
				c0.829,0,1.5,0.672,1.5,1.5C330.49,468.054,329.818,468.726,328.99,468.726z"/>
		</g>
		<g>
			<path style="fill:#268EEB;" d="M328.99,489.746h-42.824c-0.829,0-1.5-0.672-1.5-1.5s0.671-1.5,1.5-1.5h42.824
				c0.829,0,1.5,0.672,1.5,1.5S329.818,489.746,328.99,489.746z"/>
		</g>
		<g>
			<path style="fill:#268EEB;" d="M328.99,510.527h-42.824c-0.829,0-1.5-0.672-1.5-1.5c0-0.828,0.671-1.5,1.5-1.5h42.824
				c0.829,0,1.5,0.672,1.5,1.5C330.49,509.855,329.818,510.527,328.99,510.527z"/>
		</g>
		<g>
			<path style="fill:#268EEB;" d="M328.99,531.549h-42.824c-0.829,0-1.5-0.672-1.5-1.5c0-0.828,0.671-1.5,1.5-1.5h42.824
				c0.829,0,1.5,0.672,1.5,1.5C330.49,530.877,329.818,531.549,328.99,531.549z"/>
		</g>
		<g>
			<path style="fill:#268EEB;" d="M475.395,572.749c-0.828,0-1.5-0.672-1.5-1.5v-9.425c0-0.377,0.143-0.741,0.398-1.018
				l10.051-10.874c0.563-0.607,1.511-0.644,2.12-0.083c0.608,0.563,0.645,1.512,0.083,2.12l-9.652,10.442v8.838
				C476.895,572.077,476.223,572.749,475.395,572.749z"/>
		</g>
		<g>
			<path style="fill:#268EEB;" d="M464.749,562.843c-0.356,0-0.715-0.127-1.001-0.384c-0.616-0.554-0.668-1.502-0.114-2.118
				l9.329-10.393c0.284-0.317,0.69-0.498,1.116-0.498h42.825c0.463,0,0.9,0.214,1.185,0.579l7.892,10.149
				c0.508,0.654,0.391,1.597-0.264,2.105c-0.653,0.505-1.597,0.39-2.106-0.264l-7.44-9.57h-41.423l-8.882,9.895
				C465.57,562.675,465.16,562.843,464.749,562.843z"/>
		</g>
		<g>
			<path style="fill:#268EEB;" d="M516.904,572.749c-0.828,0-1.5-0.672-1.5-1.5v-8.833l-9.767-10.441
				c-0.565-0.604-0.534-1.554,0.071-2.12c0.604-0.565,1.553-0.535,2.12,0.071L518,560.8c0.26,0.277,0.404,0.644,0.404,1.024v9.425
				C518.404,572.077,517.732,572.749,516.904,572.749z"/>
		</g>
		<g>
			<path style="fill:#268EEB;" d="M511.88,191.098h-31.577c-0.828,0-1.5-0.671-1.5-1.5c0-0.829,0.672-1.5,1.5-1.5h31.577
				c0.828,0,1.5,0.671,1.5,1.5C513.38,190.426,512.708,191.098,511.88,191.098z"/>
		</g>
		<g>
			<path style="fill:#268EEB;" d="M504.105,191.098c-0.828,0-1.5-0.671-1.5-1.5c0-9.939-3.434-16.865-6.516-16.865
				c-3.081,0-6.515,6.926-6.515,16.865c0,0.829-0.672,1.5-1.5,1.5s-1.5-0.671-1.5-1.5c0-11.325,4.091-19.865,9.515-19.865
				c5.425,0,9.516,8.54,9.516,19.865C505.605,190.426,504.934,191.098,504.105,191.098z"/>
		</g>
		<g>
			<path style="fill:#268EEB;" d="M496.09,172.974c-0.828,0-1.5-0.671-1.5-1.5v-8.938c0-0.829,0.672-1.5,1.5-1.5
				c0.828,0,1.5,0.671,1.5,1.5v8.938C497.59,172.302,496.918,172.974,496.09,172.974z"/>
		</g>
		<g>
			<path style="fill:#268EEB;" d="M516.904,405.3h-42.825c-0.828,0-1.5-0.672-1.5-1.5s0.672-1.5,1.5-1.5h42.825
				c0.828,0,1.5,0.672,1.5,1.5S517.732,405.3,516.904,405.3z"/>
		</g>
		<g>
			<path style="fill:#268EEB;" d="M516.904,427.286h-42.825c-0.828,0-1.5-0.672-1.5-1.5c0-0.828,0.672-1.5,1.5-1.5h42.825
				c0.828,0,1.5,0.672,1.5,1.5C518.404,426.614,517.732,427.286,516.904,427.286z"/>
		</g>
		<g>
			<path style="fill:#268EEB;" d="M516.904,447.701h-42.825c-0.828,0-1.5-0.672-1.5-1.5c0-0.828,0.672-1.5,1.5-1.5h42.825
				c0.828,0,1.5,0.672,1.5,1.5C518.404,447.029,517.732,447.701,516.904,447.701z"/>
		</g>
		<g>
			<path style="fill:#268EEB;" d="M516.904,468.726h-42.825c-0.828,0-1.5-0.672-1.5-1.5c0-0.828,0.672-1.5,1.5-1.5h42.825
				c0.828,0,1.5,0.672,1.5,1.5C518.404,468.054,517.732,468.726,516.904,468.726z"/>
		</g>
		<g>
			<path style="fill:#268EEB;" d="M516.904,489.746h-42.825c-0.828,0-1.5-0.672-1.5-1.5s0.672-1.5,1.5-1.5h42.825
				c0.828,0,1.5,0.672,1.5,1.5S517.732,489.746,516.904,489.746z"/>
		</g>
		<g>
			<path style="fill:#268EEB;" d="M516.904,510.527h-42.825c-0.828,0-1.5-0.672-1.5-1.5c0-0.828,0.672-1.5,1.5-1.5h42.825
				c0.828,0,1.5,0.672,1.5,1.5C518.404,509.855,517.732,510.527,516.904,510.527z"/>
		</g>
		<g>
			<path style="fill:#268EEB;" d="M516.904,531.549h-42.825c-0.828,0-1.5-0.672-1.5-1.5c0-0.828,0.672-1.5,1.5-1.5h42.825
				c0.828,0,1.5,0.672,1.5,1.5C518.404,530.877,517.732,531.549,516.904,531.549z"/>
		</g>
		<g>
			<path style="fill:#268EEB;" d="M474.079,213.688H328.99c-0.829,0-1.5-0.671-1.5-1.5s0.671-1.5,1.5-1.5h145.089
				c0.828,0,1.5,0.671,1.5,1.5S474.907,213.688,474.079,213.688z"/>
		</g>
		<g>
			<path style="fill:#268EEB;" d="M484.848,227.824H318.221c-0.829,0-1.5-0.671-1.5-1.5s0.671-1.5,1.5-1.5h166.626
				c0.828,0,1.5,0.671,1.5,1.5S485.676,227.824,484.848,227.824z"/>
		</g>
		<g>
			<path style="fill:#268EEB;" d="M349.68,228.065c-0.829,0-1.5-0.671-1.5-1.5v-15.101c0-0.829,0.671-1.5,1.5-1.5
				c0.829,0,1.5,0.671,1.5,1.5v15.101C351.18,227.394,350.509,228.065,349.68,228.065z"/>
		</g>
		<g>
			<path style="fill:#268EEB;" d="M370.375,228.065c-0.829,0-1.5-0.671-1.5-1.5v-15.101c0-0.829,0.671-1.5,1.5-1.5
				c0.829,0,1.5,0.671,1.5,1.5v15.101C371.875,227.394,371.204,228.065,370.375,228.065z"/>
		</g>
		<g>
			<path style="fill:#268EEB;" d="M391.189,228.065c-0.829,0-1.5-0.671-1.5-1.5v-15.101c0-0.829,0.671-1.5,1.5-1.5
				c0.829,0,1.5,0.671,1.5,1.5v15.101C392.689,227.394,392.018,228.065,391.189,228.065z"/>
		</g>
		<g>
			<path style="fill:#268EEB;" d="M411.88,228.065c-0.828,0-1.5-0.671-1.5-1.5v-15.101c0-0.829,0.672-1.5,1.5-1.5
				c0.828,0,1.5,0.671,1.5,1.5v15.101C413.38,227.394,412.708,228.065,411.88,228.065z"/>
		</g>
		<g>
			<path style="fill:#268EEB;" d="M432.694,228.065c-0.828,0-1.5-0.671-1.5-1.5v-15.101c0-0.829,0.672-1.5,1.5-1.5
				c0.828,0,1.5,0.671,1.5,1.5v15.101C434.194,227.394,433.522,228.065,432.694,228.065z"/>
		</g>
		<g>
			<path style="fill:#268EEB;" d="M453.39,228.065c-0.828,0-1.5-0.671-1.5-1.5v-15.101c0-0.829,0.672-1.5,1.5-1.5
				c0.828,0,1.5,0.671,1.5,1.5v15.101C454.89,227.394,454.218,228.065,453.39,228.065z"/>
		</g>
		<g>
			<path style="fill:#268EEB;" d="M286.165,342.959H183.774c-0.829,0-1.5-0.671-1.5-1.5c0-0.829,0.671-1.5,1.5-1.5h102.392
				c0.829,0,1.5,0.671,1.5,1.5C287.665,342.288,286.994,342.959,286.165,342.959z"/>
		</g>
		<g>
			<path style="fill:#268EEB;" d="M620.012,342.959H517.621c-0.828,0-1.5-0.671-1.5-1.5c0-0.829,0.672-1.5,1.5-1.5h102.391
				c0.828,0,1.5,0.671,1.5,1.5C621.512,342.288,620.84,342.959,620.012,342.959z"/>
		</g>
		<g>
			<path style="fill:#268EEB;" d="M245.975,342.959c-0.829,0-1.5-0.671-1.5-1.5v-31.41c0-0.829,0.671-1.5,1.5-1.5s1.5,0.671,1.5,1.5
				v31.41C247.475,342.288,246.804,342.959,245.975,342.959z"/>
		</g>
		<g>
			<path style="fill:#268EEB;" d="M266.669,342.959c-0.829,0-1.5-0.671-1.5-1.5v-31.41c0-0.829,0.671-1.5,1.5-1.5
				c0.829,0,1.5,0.671,1.5,1.5v31.41C268.169,342.288,267.498,342.959,266.669,342.959z"/>
		</g>
		<g>
			<path style="fill:#268EEB;" d="M266.669,332.568h-20.694c-0.829,0-1.5-0.671-1.5-1.5c0-0.829,0.671-1.5,1.5-1.5h20.694
				c0.829,0,1.5,0.671,1.5,1.5C268.169,331.897,267.498,332.568,266.669,332.568z"/>
		</g>
		<g>
			<path style="fill:#268EEB;" d="M536.4,342.959c-0.828,0-1.5-0.671-1.5-1.5v-31.41c0-0.829,0.672-1.5,1.5-1.5s1.5,0.671,1.5,1.5
				v31.41C537.9,342.288,537.229,342.959,536.4,342.959z"/>
		</g>
		<g>
			<path style="fill:#268EEB;" d="M557.214,342.959c-0.828,0-1.5-0.671-1.5-1.5v-31.41c0-0.829,0.672-1.5,1.5-1.5
				c0.828,0,1.5,0.671,1.5,1.5v31.41C558.714,342.288,558.042,342.959,557.214,342.959z"/>
		</g>
		<g>
			<path style="fill:#268EEB;" d="M557.214,332.568H536.4c-0.828,0-1.5-0.671-1.5-1.5c0-0.829,0.672-1.5,1.5-1.5h20.813
				c0.828,0,1.5,0.671,1.5,1.5C558.714,331.897,558.042,332.568,557.214,332.568z"/>
		</g>
		<g>
			<path style="fill:#268EEB;" d="M204.47,573.471c-0.829,0-1.5-0.672-1.5-1.5v-178.08c0-0.828,0.671-1.5,1.5-1.5s1.5,0.672,1.5,1.5
				v178.08C205.97,572.799,205.299,573.471,204.47,573.471z"/>
		</g>
		<g>
			<path style="fill:#268EEB;" d="M598.36,573.471c-0.828,0-1.5-0.672-1.5-1.5v-178.08c0-0.828,0.672-1.5,1.5-1.5
				c0.828,0,1.5,0.672,1.5,1.5v178.08C599.86,572.799,599.188,573.471,598.36,573.471z"/>
		</g>
		<g>
			<path style="fill:#268EEB;" d="M272.888,574.076c-0.829,0-1.5-0.672-1.5-1.5c0-24.846,0.246-43.927,0.443-59.26
				c0.724-56.215,0.724-56.215-15.386-79.62c-2.873-4.174-6.383-9.274-10.471-15.544c-4.156,6.374-7.717,11.536-10.631,15.759
				c-16.118,23.362-16.118,23.362-15.429,80.642c0.182,15.08,0.407,33.848,0.407,58.023c0,0.828-0.671,1.5-1.5,1.5
				c-0.829,0-1.5-0.672-1.5-1.5c0-24.157-0.226-42.915-0.407-57.987c-0.701-58.233-0.701-58.233,15.96-82.382
				c3.192-4.626,7.165-10.385,11.84-17.624c0.553-0.855,1.968-0.855,2.521,0c4.605,7.132,8.529,12.832,11.682,17.413
				c16.65,24.19,16.65,24.19,15.914,81.359c-0.197,15.323-0.443,34.394-0.443,59.221
				C274.388,573.404,273.717,574.076,272.888,574.076z"/>
		</g>
		<g>
			<path style="fill:#268EEB;" d="M226.121,479.115h-7.537c-0.829,0-1.5-0.672-1.5-1.5c0-0.828,0.671-1.5,1.5-1.5h7.537
				c0.829,0,1.5,0.672,1.5,1.5C227.621,478.443,226.949,479.115,226.121,479.115z"/>
		</g>
		<g>
			<path style="fill:#268EEB;" d="M225.28,489.627h-6.815c-0.829,0-1.5-0.672-1.5-1.5c0-0.828,0.671-1.5,1.5-1.5h6.815
				c0.829,0,1.5,0.672,1.5,1.5C226.78,488.955,226.108,489.627,225.28,489.627z"/>
		</g>
		<g>
			<path style="fill:#268EEB;" d="M225.28,500.141h-6.815c-0.829,0-1.5-0.672-1.5-1.5c0-0.828,0.671-1.5,1.5-1.5h6.815
				c0.829,0,1.5,0.672,1.5,1.5C226.78,499.469,226.108,500.141,225.28,500.141z"/>
		</g>
		<g>
			<path style="fill:#268EEB;" d="M225.28,510.527h-6.815c-0.829,0-1.5-0.672-1.5-1.5c0-0.828,0.671-1.5,1.5-1.5h6.815
				c0.829,0,1.5,0.672,1.5,1.5C226.78,509.855,226.108,510.527,225.28,510.527z"/>
		</g>
		<g>
			<path style="fill:#268EEB;" d="M225.28,521.041h-6.815c-0.829,0-1.5-0.672-1.5-1.5c0-0.828,0.671-1.5,1.5-1.5h6.815
				c0.829,0,1.5,0.672,1.5,1.5C226.78,520.369,226.108,521.041,225.28,521.041z"/>
		</g>
		<g>
			<path style="fill:#268EEB;" d="M225.28,531.549h-6.815c-0.829,0-1.5-0.672-1.5-1.5c0-0.828,0.671-1.5,1.5-1.5h6.815
				c0.829,0,1.5,0.672,1.5,1.5C226.78,530.877,226.108,531.549,225.28,531.549z"/>
		</g>
		<g>
			<path style="fill:#268EEB;" d="M225.28,542.062h-6.815c-0.829,0-1.5-0.672-1.5-1.5c0-0.828,0.671-1.5,1.5-1.5h6.815
				c0.829,0,1.5,0.672,1.5,1.5C226.78,541.39,226.108,542.062,225.28,542.062z"/>
		</g>
		<g>
			<path style="fill:#268EEB;" d="M225.28,552.45h-6.815c-0.829,0-1.5-0.672-1.5-1.5s0.671-1.5,1.5-1.5h6.815
				c0.829,0,1.5,0.672,1.5,1.5S226.108,552.45,225.28,552.45z"/>
		</g>
		<g>
			<path style="fill:#268EEB;" d="M225.28,562.962h-6.815c-0.829,0-1.5-0.672-1.5-1.5c0-0.828,0.671-1.5,1.5-1.5h6.815
				c0.829,0,1.5,0.672,1.5,1.5C226.78,562.29,226.108,562.962,225.28,562.962z"/>
		</g>
		<g>
			<path style="fill:#268EEB;" d="M274.203,479.115h-7.533c-0.829,0-1.5-0.672-1.5-1.5c0-0.828,0.671-1.5,1.5-1.5h7.533
				c0.829,0,1.5,0.672,1.5,1.5C275.703,478.443,275.031,479.115,274.203,479.115z"/>
		</g>
		<g>
			<path style="fill:#268EEB;" d="M273.247,489.627h-6.816c-0.829,0-1.5-0.672-1.5-1.5c0-0.828,0.671-1.5,1.5-1.5h6.816
				c0.829,0,1.5,0.672,1.5,1.5C274.747,488.955,274.075,489.627,273.247,489.627z"/>
		</g>
		<g>
			<path style="fill:#268EEB;" d="M273.247,500.141h-6.816c-0.829,0-1.5-0.672-1.5-1.5c0-0.828,0.671-1.5,1.5-1.5h6.816
				c0.829,0,1.5,0.672,1.5,1.5C274.747,499.469,274.075,500.141,273.247,500.141z"/>
		</g>
		<g>
			<path style="fill:#268EEB;" d="M273.247,510.527h-6.816c-0.829,0-1.5-0.672-1.5-1.5c0-0.828,0.671-1.5,1.5-1.5h6.816
				c0.829,0,1.5,0.672,1.5,1.5C274.747,509.855,274.075,510.527,273.247,510.527z"/>
		</g>
		<g>
			<path style="fill:#268EEB;" d="M273.247,521.041h-6.816c-0.829,0-1.5-0.672-1.5-1.5c0-0.828,0.671-1.5,1.5-1.5h6.816
				c0.829,0,1.5,0.672,1.5,1.5C274.747,520.369,274.075,521.041,273.247,521.041z"/>
		</g>
		<g>
			<path style="fill:#268EEB;" d="M273.247,531.549h-6.816c-0.829,0-1.5-0.672-1.5-1.5c0-0.828,0.671-1.5,1.5-1.5h6.816
				c0.829,0,1.5,0.672,1.5,1.5C274.747,530.877,274.075,531.549,273.247,531.549z"/>
		</g>
		<g>
			<path style="fill:#268EEB;" d="M273.247,542.062h-6.816c-0.829,0-1.5-0.672-1.5-1.5c0-0.828,0.671-1.5,1.5-1.5h6.816
				c0.829,0,1.5,0.672,1.5,1.5C274.747,541.39,274.075,542.062,273.247,542.062z"/>
		</g>
		<g>
			<path style="fill:#268EEB;" d="M273.247,552.45h-6.816c-0.829,0-1.5-0.672-1.5-1.5s0.671-1.5,1.5-1.5h6.816
				c0.829,0,1.5,0.672,1.5,1.5S274.075,552.45,273.247,552.45z"/>
		</g>
		<g>
			<path style="fill:#268EEB;" d="M273.247,562.962h-6.816c-0.829,0-1.5-0.672-1.5-1.5c0-0.828,0.671-1.5,1.5-1.5h6.816
				c0.829,0,1.5,0.672,1.5,1.5C274.747,562.29,274.075,562.962,273.247,562.962z"/>
		</g>
		<g>
			<path style="fill:#268EEB;" d="M245.975,479.115c-0.829,0-1.5-0.672-1.5-1.5v-62.823c0-0.828,0.671-1.5,1.5-1.5
				s1.5,0.672,1.5,1.5v62.823C247.475,478.443,246.804,479.115,245.975,479.115z"/>
		</g>
		<g>
			<path style="fill:#268EEB;" d="M266.669,447.701h-41.39c-0.829,0-1.5-0.672-1.5-1.5c0-0.828,0.671-1.5,1.5-1.5h41.39
				c0.829,0,1.5,0.672,1.5,1.5C268.169,447.029,267.498,447.701,266.669,447.701z"/>
		</g>
		<g>
			<path style="fill:#268EEB;" d="M270.857,458.218h-50.123c-0.829,0-1.5-0.672-1.5-1.5c0-0.828,0.671-1.5,1.5-1.5h50.123
				c0.829,0,1.5,0.672,1.5,1.5C272.357,457.546,271.685,458.218,270.857,458.218z"/>
		</g>
		<g>
			<path style="fill:#268EEB;" d="M272.888,468.726h-53.826c-0.829,0-1.5-0.672-1.5-1.5c0-0.828,0.671-1.5,1.5-1.5h53.826
				c0.829,0,1.5,0.672,1.5,1.5C274.388,468.054,273.717,468.726,272.888,468.726z"/>
		</g>
		<g>
			<path style="fill:#268EEB;" d="M259.73,437.317h-27.511c-0.829,0-1.5-0.672-1.5-1.5c0-0.828,0.671-1.5,1.5-1.5h27.511
				c0.829,0,1.5,0.672,1.5,1.5C261.23,436.646,260.559,437.317,259.73,437.317z"/>
		</g>
		<g>
			<path style="fill:#268EEB;" d="M255.783,479.115c-0.829,0-1.5-0.672-1.5-1.5v-41.072c0-0.828,0.671-1.5,1.5-1.5
				c0.829,0,1.5,0.672,1.5,1.5v41.072C257.283,478.443,256.611,479.115,255.783,479.115z"/>
		</g>
		<g>
			<path style="fill:#268EEB;" d="M266.669,479.115c-0.829,0-1.5-0.672-1.5-1.5v-31.414c0-0.828,0.671-1.5,1.5-1.5
				c0.829,0,1.5,0.672,1.5,1.5v31.414C268.169,478.443,267.498,479.115,266.669,479.115z"/>
		</g>
		<g>
			<path style="fill:#268EEB;" d="M236.645,479.115c-0.829,0-1.5-0.672-1.5-1.5v-41.072c0-0.828,0.671-1.5,1.5-1.5
				c0.829,0,1.5,0.672,1.5,1.5v41.072C238.145,478.443,237.474,479.115,236.645,479.115z"/>
		</g>
		<g>
			<path style="fill:#268EEB;" d="M225.762,479.115c-0.829,0-1.5-0.672-1.5-1.5v-31.414c0-0.828,0.671-1.5,1.5-1.5
				s1.5,0.672,1.5,1.5v31.414C227.262,478.443,226.591,479.115,225.762,479.115z"/>
		</g>
		<g>
			<path style="fill:#268EEB;" d="M286.165,416.292H204.47c-0.829,0-1.5-0.672-1.5-1.5s0.671-1.5,1.5-1.5h81.695
				c0.829,0,1.5,0.672,1.5,1.5S286.994,416.292,286.165,416.292z"/>
		</g>
		<g>
			<path style="fill:#268EEB;" d="M286.165,405.782H204.47c-0.829,0-1.5-0.672-1.5-1.5c0-0.828,0.671-1.5,1.5-1.5h81.695
				c0.829,0,1.5,0.672,1.5,1.5C287.665,405.11,286.994,405.782,286.165,405.782z"/>
		</g>
		<g>
			<path style="fill:#268EEB;" d="M286.165,411.218H204.47c-0.829,0-1.5-0.672-1.5-1.5c0-0.828,0.671-1.5,1.5-1.5h81.695
				c0.829,0,1.5,0.672,1.5,1.5C287.665,410.546,286.994,411.218,286.165,411.218z"/>
		</g>
		<g>
			<path style="fill:#268EEB;" d="M204.47,416.292h-20.696c-0.829,0-1.5-0.672-1.5-1.5s0.671-1.5,1.5-1.5h20.696
				c0.829,0,1.5,0.672,1.5,1.5S205.299,416.292,204.47,416.292z"/>
		</g>
		<g>
			<path style="fill:#268EEB;" d="M204.47,437.317h-20.696c-0.829,0-1.5-0.672-1.5-1.5c0-0.828,0.671-1.5,1.5-1.5h20.696
				c0.829,0,1.5,0.672,1.5,1.5C205.97,436.646,205.299,437.317,204.47,437.317z"/>
		</g>
		<g>
			<path style="fill:#268EEB;" d="M204.47,458.218h-20.696c-0.829,0-1.5-0.672-1.5-1.5c0-0.828,0.671-1.5,1.5-1.5h20.696
				c0.829,0,1.5,0.672,1.5,1.5C205.97,457.546,205.299,458.218,204.47,458.218z"/>
		</g>
		<g>
			<path style="fill:#268EEB;" d="M204.47,479.115h-20.696c-0.829,0-1.5-0.672-1.5-1.5c0-0.828,0.671-1.5,1.5-1.5h20.696
				c0.829,0,1.5,0.672,1.5,1.5C205.97,478.443,205.299,479.115,204.47,479.115z"/>
		</g>
		<g>
			<path style="fill:#268EEB;" d="M204.47,500.141h-20.696c-0.829,0-1.5-0.672-1.5-1.5c0-0.828,0.671-1.5,1.5-1.5h20.696
				c0.829,0,1.5,0.672,1.5,1.5C205.97,499.469,205.299,500.141,204.47,500.141z"/>
		</g>
		<g>
			<path style="fill:#268EEB;" d="M204.47,521.041h-20.696c-0.829,0-1.5-0.672-1.5-1.5c0-0.828,0.671-1.5,1.5-1.5h20.696
				c0.829,0,1.5,0.672,1.5,1.5C205.97,520.369,205.299,521.041,204.47,521.041z"/>
		</g>
		<g>
			<path style="fill:#268EEB;" d="M204.47,542.062h-20.696c-0.829,0-1.5-0.672-1.5-1.5c0-0.828,0.671-1.5,1.5-1.5h20.696
				c0.829,0,1.5,0.672,1.5,1.5C205.97,541.39,205.299,542.062,204.47,542.062z"/>
		</g>
		<g>
			<path style="fill:#268EEB;" d="M204.47,562.962h-20.696c-0.829,0-1.5-0.672-1.5-1.5c0-0.828,0.671-1.5,1.5-1.5h20.696
				c0.829,0,1.5,0.672,1.5,1.5C205.97,562.29,205.299,562.962,204.47,562.962z"/>
		</g>
		<g>
			<path style="fill:#268EEB;" d="M576.829,531.549h-4.308c-0.828,0-1.5-0.672-1.5-1.5v-9.008h-3.881c-0.828,0-1.5-0.672-1.5-1.5
				v-2.901c-0.11-8.142-1.238-11.256-8.753-16.192c-7.295,5.181-8.491,8.479-8.703,16.476c0.001,0.402-0.028,0.844-0.06,1.301
				c-0.029,0.419-0.06,0.853-0.06,1.317c0,0.828-0.672,1.5-1.5,1.5h-3.403v9.008c0,0.828-0.672,1.5-1.5,1.5h-6.098
				c-0.828,0-1.5-0.672-1.5-1.5c0-0.828,0.672-1.5,1.5-1.5h4.598v-9.008c0-0.828,0.672-1.5,1.5-1.5h3.469
				c0.001-0.008,0.001-0.016,0.002-0.024c0.026-0.387,0.054-0.76,0.054-1.134c0.261-9.862,2.385-13.677,10.82-19.479
				c0.494-0.342,1.146-0.353,1.654-0.029c9.25,5.883,10.854,9.965,10.98,19.244v1.422h3.881c0.828,0,1.5,0.672,1.5,1.5v9.008h2.808
				c0.828,0,1.5,0.672,1.5,1.5C578.329,530.877,577.657,531.549,576.829,531.549z"/>
		</g>
		<g>
			<path style="fill:#268EEB;" d="M598.36,573.471c-0.828,0-1.5-0.672-1.5-1.5v-178.08c0-0.828,0.672-1.5,1.5-1.5
				c0.828,0,1.5,0.672,1.5,1.5v178.08C599.86,572.799,599.188,573.471,598.36,573.471z"/>
		</g>
		<g>
			<path style="fill:#268EEB;" d="M584.007,574.076c-0.828,0-1.5-0.672-1.5-1.5c0-24.434,0.234-43.323,0.422-58.502
				c0.705-56.865,0.705-56.865-15.463-80.243c-2.908-4.205-6.463-9.346-10.608-15.682c-4.054,6.219-7.539,11.288-10.393,15.438
				c-16.105,23.427-16.105,23.427-15.364,79.12c0.206,15.455,0.462,34.69,0.462,59.868c0,0.828-0.672,1.5-1.5,1.5
				c-0.828,0-1.5-0.672-1.5-1.5c0-25.158-0.256-44.382-0.462-59.828c-0.754-56.646-0.754-56.646,15.893-80.86
				c3.133-4.557,7.032-10.228,11.603-17.305c0.275-0.428,0.75-0.686,1.259-0.686h0.001c0.509,0,0.982,0.258,1.259,0.685
				c4.664,7.198,8.632,12.935,11.819,17.544c16.712,24.164,16.712,24.164,15.995,81.986c-0.188,15.17-0.422,34.05-0.422,58.465
				C585.507,573.404,584.835,574.076,584.007,574.076z"/>
		</g>
		<g>
			<path style="fill:#268EEB;" d="M584.247,479.115h-7.536c-0.828,0-1.5-0.672-1.5-1.5c0-0.828,0.672-1.5,1.5-1.5h7.536
				c0.828,0,1.5,0.672,1.5,1.5C585.747,478.443,585.075,479.115,584.247,479.115z"/>
		</g>
		<g>
			<path style="fill:#268EEB;" d="M584.486,489.627h-6.821c-0.828,0-1.5-0.672-1.5-1.5c0-0.828,0.672-1.5,1.5-1.5h6.821
				c0.828,0,1.5,0.672,1.5,1.5C585.986,488.955,585.315,489.627,584.486,489.627z"/>
		</g>
		<g>
			<path style="fill:#268EEB;" d="M584.486,500.141h-6.821c-0.828,0-1.5-0.672-1.5-1.5c0-0.828,0.672-1.5,1.5-1.5h6.821
				c0.828,0,1.5,0.672,1.5,1.5C585.986,499.469,585.315,500.141,584.486,500.141z"/>
		</g>
		<g>
			<path style="fill:#268EEB;" d="M584.486,510.527h-6.821c-0.828,0-1.5-0.672-1.5-1.5c0-0.828,0.672-1.5,1.5-1.5h6.821
				c0.828,0,1.5,0.672,1.5,1.5C585.986,509.855,585.315,510.527,584.486,510.527z"/>
		</g>
		<g>
			<path style="fill:#268EEB;" d="M584.486,521.041h-6.821c-0.828,0-1.5-0.672-1.5-1.5c0-0.828,0.672-1.5,1.5-1.5h6.821
				c0.828,0,1.5,0.672,1.5,1.5C585.986,520.369,585.315,521.041,584.486,521.041z"/>
		</g>
		<g>
			<path style="fill:#268EEB;" d="M584.486,531.549h-6.821c-0.828,0-1.5-0.672-1.5-1.5c0-0.828,0.672-1.5,1.5-1.5h6.821
				c0.828,0,1.5,0.672,1.5,1.5C585.986,530.877,585.315,531.549,584.486,531.549z"/>
		</g>
		<g>
			<path style="fill:#268EEB;" d="M584.486,542.062h-6.821c-0.828,0-1.5-0.672-1.5-1.5c0-0.828,0.672-1.5,1.5-1.5h6.821
				c0.828,0,1.5,0.672,1.5,1.5C585.986,541.39,585.315,542.062,584.486,542.062z"/>
		</g>
		<g>
			<path style="fill:#268EEB;" d="M584.486,552.45h-6.821c-0.828,0-1.5-0.672-1.5-1.5s0.672-1.5,1.5-1.5h6.821
				c0.828,0,1.5,0.672,1.5,1.5S585.315,552.45,584.486,552.45z"/>
		</g>
		<g>
			<path style="fill:#268EEB;" d="M584.486,562.962h-6.821c-0.828,0-1.5-0.672-1.5-1.5c0-0.828,0.672-1.5,1.5-1.5h6.821
				c0.828,0,1.5,0.672,1.5,1.5C585.986,562.29,585.315,562.962,584.486,562.962z"/>
		</g>
		<g>
			<path style="fill:#268EEB;" d="M536.161,479.115h-7.418c-0.828,0-1.5-0.672-1.5-1.5c0-0.828,0.672-1.5,1.5-1.5h7.418
				c0.828,0,1.5,0.672,1.5,1.5C537.661,478.443,536.989,479.115,536.161,479.115z"/>
		</g>
		<g>
			<path style="fill:#268EEB;" d="M536.4,489.627h-6.816c-0.828,0-1.5-0.672-1.5-1.5c0-0.828,0.672-1.5,1.5-1.5h6.816
				c0.828,0,1.5,0.672,1.5,1.5C537.9,488.955,537.229,489.627,536.4,489.627z"/>
		</g>
		<g>
			<path style="fill:#268EEB;" d="M536.4,500.141h-6.816c-0.828,0-1.5-0.672-1.5-1.5c0-0.828,0.672-1.5,1.5-1.5h6.816
				c0.828,0,1.5,0.672,1.5,1.5C537.9,499.469,537.229,500.141,536.4,500.141z"/>
		</g>
		<g>
			<path style="fill:#268EEB;" d="M536.4,510.527h-6.816c-0.828,0-1.5-0.672-1.5-1.5c0-0.828,0.672-1.5,1.5-1.5h6.816
				c0.828,0,1.5,0.672,1.5,1.5C537.9,509.855,537.229,510.527,536.4,510.527z"/>
		</g>
		<g>
			<path style="fill:#268EEB;" d="M536.4,521.041h-6.816c-0.828,0-1.5-0.672-1.5-1.5c0-0.828,0.672-1.5,1.5-1.5h6.816
				c0.828,0,1.5,0.672,1.5,1.5C537.9,520.369,537.229,521.041,536.4,521.041z"/>
		</g>
		<g>
			<path style="fill:#268EEB;" d="M536.4,531.549h-6.816c-0.828,0-1.5-0.672-1.5-1.5c0-0.828,0.672-1.5,1.5-1.5h6.816
				c0.828,0,1.5,0.672,1.5,1.5C537.9,530.877,537.229,531.549,536.4,531.549z"/>
		</g>
		<g>
			<path style="fill:#268EEB;" d="M536.4,542.062h-6.816c-0.828,0-1.5-0.672-1.5-1.5c0-0.828,0.672-1.5,1.5-1.5h6.816
				c0.828,0,1.5,0.672,1.5,1.5C537.9,541.39,537.229,542.062,536.4,542.062z"/>
		</g>
		<g>
			<path style="fill:#268EEB;" d="M536.4,552.45h-6.816c-0.828,0-1.5-0.672-1.5-1.5s0.672-1.5,1.5-1.5h6.816
				c0.828,0,1.5,0.672,1.5,1.5S537.229,552.45,536.4,552.45z"/>
		</g>
		<g>
			<path style="fill:#268EEB;" d="M536.4,562.962h-6.816c-0.828,0-1.5-0.672-1.5-1.5c0-0.828,0.672-1.5,1.5-1.5h6.816
				c0.828,0,1.5,0.672,1.5,1.5C537.9,562.29,537.229,562.962,536.4,562.962z"/>
		</g>
		<g>
			<path style="fill:#268EEB;" d="M556.855,479.115c-0.828,0-1.5-0.672-1.5-1.5v-62.823c0-0.828,0.672-1.5,1.5-1.5
				c0.828,0,1.5,0.672,1.5,1.5v62.823C558.355,478.443,557.684,479.115,556.855,479.115z"/>
		</g>
		<g>
			<path style="fill:#268EEB;" d="M577.665,447.701h-41.504c-0.828,0-1.5-0.672-1.5-1.5c0-0.828,0.672-1.5,1.5-1.5h41.504
				c0.828,0,1.5,0.672,1.5,1.5C579.165,447.029,578.493,447.701,577.665,447.701z"/>
		</g>
		<g>
			<path style="fill:#268EEB;" d="M582.092,458.218h-49.998c-0.828,0-1.5-0.672-1.5-1.5c0-0.828,0.672-1.5,1.5-1.5h49.998
				c0.828,0,1.5,0.672,1.5,1.5C583.592,457.546,582.92,458.218,582.092,458.218z"/>
		</g>
		<g>
			<path style="fill:#268EEB;" d="M583.888,468.726h-53.825c-0.828,0-1.5-0.672-1.5-1.5c0-0.828,0.672-1.5,1.5-1.5h53.825
				c0.828,0,1.5,0.672,1.5,1.5C585.388,468.054,584.716,468.726,583.888,468.726z"/>
		</g>
		<g>
			<path style="fill:#268EEB;" d="M570.61,437.317h-27.51c-0.828,0-1.5-0.672-1.5-1.5c0-0.828,0.672-1.5,1.5-1.5h27.51
				c0.828,0,1.5,0.672,1.5,1.5C572.11,436.646,571.438,437.317,570.61,437.317z"/>
		</g>
		<g>
			<path style="fill:#268EEB;" d="M547.163,479.115c-0.828,0-1.5-0.672-1.5-1.5v-41.798c0-0.828,0.672-1.5,1.5-1.5
				c0.828,0,1.5,0.672,1.5,1.5v41.798C548.663,478.443,547.991,479.115,547.163,479.115z"/>
		</g>
		<g>
			<path style="fill:#268EEB;" d="M536.161,479.115c-0.828,0-1.5-0.672-1.5-1.5v-31.414c0-0.828,0.672-1.5,1.5-1.5
				c0.828,0,1.5,0.672,1.5,1.5v31.414C537.661,478.443,536.989,479.115,536.161,479.115z"/>
		</g>
		<g>
			<path style="fill:#268EEB;" d="M566.185,479.115c-0.828,0-1.5-0.672-1.5-1.5v-41.798c0-0.828,0.672-1.5,1.5-1.5
				c0.828,0,1.5,0.672,1.5,1.5v41.798C567.685,478.443,567.014,479.115,566.185,479.115z"/>
		</g>
		<g>
			<path style="fill:#268EEB;" d="M577.665,479.115c-0.828,0-1.5-0.672-1.5-1.5v-31.414c0-0.828,0.672-1.5,1.5-1.5
				c0.828,0,1.5,0.672,1.5,1.5v31.414C579.165,478.443,578.493,479.115,577.665,479.115z"/>
		</g>
		<g>
			<path style="fill:#268EEB;" d="M598.36,416.292h-81.695c-0.828,0-1.5-0.672-1.5-1.5s0.672-1.5,1.5-1.5h81.695
				c0.828,0,1.5,0.672,1.5,1.5S599.188,416.292,598.36,416.292z"/>
		</g>
		<g>
			<path style="fill:#268EEB;" d="M598.36,405.782h-81.695c-0.828,0-1.5-0.672-1.5-1.5c0-0.828,0.672-1.5,1.5-1.5h81.695
				c0.828,0,1.5,0.672,1.5,1.5C599.86,405.11,599.188,405.782,598.36,405.782z"/>
		</g>
		<g>
			<path style="fill:#268EEB;" d="M598.36,411.218h-81.695c-0.828,0-1.5-0.672-1.5-1.5c0-0.828,0.672-1.5,1.5-1.5h81.695
				c0.828,0,1.5,0.672,1.5,1.5C599.86,410.546,599.188,411.218,598.36,411.218z"/>
		</g>
		<g>
			<path style="fill:#268EEB;" d="M619.176,416.292H598.36c-0.828,0-1.5-0.672-1.5-1.5s0.672-1.5,1.5-1.5h20.815
				c0.828,0,1.5,0.672,1.5,1.5S620.004,416.292,619.176,416.292z"/>
		</g>
		<g>
			<path style="fill:#268EEB;" d="M619.176,437.317H598.36c-0.828,0-1.5-0.672-1.5-1.5c0-0.828,0.672-1.5,1.5-1.5h20.815
				c0.828,0,1.5,0.672,1.5,1.5C620.676,436.646,620.004,437.317,619.176,437.317z"/>
		</g>
		<g>
			<path style="fill:#268EEB;" d="M619.176,458.218H598.36c-0.828,0-1.5-0.672-1.5-1.5c0-0.828,0.672-1.5,1.5-1.5h20.815
				c0.828,0,1.5,0.672,1.5,1.5C620.676,457.546,620.004,458.218,619.176,458.218z"/>
		</g>
		<g>
			<path style="fill:#268EEB;" d="M619.176,479.115H598.36c-0.828,0-1.5-0.672-1.5-1.5c0-0.828,0.672-1.5,1.5-1.5h20.815
				c0.828,0,1.5,0.672,1.5,1.5C620.676,478.443,620.004,479.115,619.176,479.115z"/>
		</g>
		<g>
			<path style="fill:#268EEB;" d="M619.176,500.141H598.36c-0.828,0-1.5-0.672-1.5-1.5c0-0.828,0.672-1.5,1.5-1.5h20.815
				c0.828,0,1.5,0.672,1.5,1.5C620.676,499.469,620.004,500.141,619.176,500.141z"/>
		</g>
		<g>
			<path style="fill:#268EEB;" d="M619.176,521.041H598.36c-0.828,0-1.5-0.672-1.5-1.5c0-0.828,0.672-1.5,1.5-1.5h20.815
				c0.828,0,1.5,0.672,1.5,1.5C620.676,520.369,620.004,521.041,619.176,521.041z"/>
		</g>
		<g>
			<path style="fill:#268EEB;" d="M619.176,542.062H598.36c-0.828,0-1.5-0.672-1.5-1.5c0-0.828,0.672-1.5,1.5-1.5h20.815
				c0.828,0,1.5,0.672,1.5,1.5C620.676,541.39,620.004,542.062,619.176,542.062z"/>
		</g>
		<g>
			<path style="fill:#268EEB;" d="M619.176,562.962H598.36c-0.828,0-1.5-0.672-1.5-1.5c0-0.828,0.672-1.5,1.5-1.5h20.815
				c0.828,0,1.5,0.672,1.5,1.5C620.676,562.29,620.004,562.962,619.176,562.962z"/>
		</g>
		<g>
			<path style="fill:#268EEB;" d="M481.02,319.159H322.05c-0.829,0-1.5-0.671-1.5-1.5c0-0.829,0.671-1.5,1.5-1.5H481.02
				c0.828,0,1.5,0.671,1.5,1.5C482.52,318.488,481.848,319.159,481.02,319.159z"/>
		</g>
		<g>
			<path style="fill:#268EEB;" d="M293.105,374.37H166.669c-0.829,0-1.5-0.672-1.5-1.5c0-0.828,0.671-1.5,1.5-1.5h126.436
				c0.829,0,1.5,0.672,1.5,1.5C294.605,373.698,293.934,374.37,293.105,374.37z"/>
		</g>
		<g>
			<path style="fill:#268EEB;" d="M636.396,374.37H509.964c-0.828,0-1.5-0.672-1.5-1.5c0-0.828,0.672-1.5,1.5-1.5h126.433
				c0.828,0,1.5,0.672,1.5,1.5C637.896,373.698,637.225,374.37,636.396,374.37z"/>
		</g>
		<g>
			<path style="fill:#268EEB;" d="M286.165,479.115H204.47c-0.829,0-1.5-0.672-1.5-1.5c0-0.828,0.671-1.5,1.5-1.5h81.695
				c0.829,0,1.5,0.672,1.5,1.5C287.665,478.443,286.994,479.115,286.165,479.115z"/>
		</g>
		<g>
			<path style="fill:#268EEB;" d="M598.36,479.115h-81.456c-0.828,0-1.5-0.672-1.5-1.5c0-0.828,0.672-1.5,1.5-1.5h81.456
				c0.828,0,1.5,0.672,1.5,1.5C599.86,478.443,599.188,479.115,598.36,479.115z"/>
		</g>
		<g>
			<path style="fill:#268EEB;" d="M481.02,374.37H322.05c-0.829,0-1.5-0.672-1.5-1.5c0-0.828,0.671-1.5,1.5-1.5H481.02
				c0.828,0,1.5,0.672,1.5,1.5C482.52,373.698,481.848,374.37,481.02,374.37z"/>
		</g>
		<g>
			<path style="fill:#268EEB;" d="M481.02,369.417H322.05c-0.829,0-1.5-0.672-1.5-1.5s0.671-1.5,1.5-1.5H481.02
				c0.828,0,1.5,0.672,1.5,1.5S481.848,369.417,481.02,369.417z"/>
		</g>
		<g>
			<path style="fill:#268EEB;" d="M499.081,191.098c-0.828,0-1.5-0.671-1.5-1.5c0-8.08-0.797-13.379-1.491-15.74
				c-0.695,2.361-1.492,7.661-1.492,15.74c0,0.829-0.672,1.5-1.5,1.5c-0.828,0-1.5-0.671-1.5-1.5c0-7.419,0.584-19.865,4.492-19.865
				s4.491,12.446,4.491,19.865C500.581,190.426,499.909,191.098,499.081,191.098z"/>
		</g>
		<g>
			<path style="fill:#268EEB;" d="M311.525,191.098c-0.829,0-1.5-0.671-1.5-1.5c0-8.74-1.022-14.174-1.823-16.189
				c-0.813,2.069-1.877,7.619-1.877,16.189c0,0.829-0.671,1.5-1.5,1.5c-0.829,0-1.5-0.671-1.5-1.5c0-4.66,0.35-19.865,4.851-19.865
				c4.377,0,4.85,13.893,4.85,19.865C313.025,190.426,312.353,191.098,311.525,191.098z"/>
		</g>
	</g>
	<g>
		<g>
			<g>
				<path style="fill:#268EEB;" d="M276.149,733.819c-0.678,1.094-1.695,2.057-3.05,2.889c-1.356,0.831-3.074,1.247-5.153,1.247
					c-2.689,0-4.846-0.797-6.472-2.391c-1.626-1.594-2.439-3.862-2.439-6.807v-7.748c0-2.921,0.784-5.184,2.353-6.789
					c1.568-1.606,3.645-2.408,6.23-2.408c2.781,0,4.866,0.688,6.256,2.065c1.39,1.377,2.114,3.35,2.171,5.918l-0.034,0.106h-4.602
					c-0.035-1.435-0.348-2.481-0.939-3.14c-0.592-0.658-1.497-0.988-2.714-0.988c-1.195,0-2.131,0.429-2.809,1.284
					c-0.678,0.857-1.017,2.157-1.017,3.904v7.791c0,1.782,0.342,3.101,1.025,3.957c0.684,0.855,1.681,1.284,2.99,1.284
					c0.977,0,1.698-0.134,2.163-0.401c0.465-0.268,0.847-0.664,1.146-1.188v-4.555h-3.309v-3.49h8.204V733.819z"/>
				<path style="fill:#268EEB;" d="M292.026,732.161h-6.618l-1.344,5.428h-4.946l7.066-25.41h5.102l7.049,25.41h-4.946
					L292.026,732.161z M286.407,728.199h4.619l-2.257-8.987h-0.104L286.407,728.199z"/>
				<path style="fill:#268EEB;" d="M314.698,716.141h-5.653v21.448h-4.895v-21.448h-5.618v-3.962h16.166V716.141z"/>
				<path style="fill:#268EEB;" d="M331.457,726.437h-8.428v7.19h9.91v3.962h-14.821v-25.41h14.787v3.962h-9.876v6.335h8.428
					V726.437z"/>
				<path style="fill:#268EEB;" d="M359.537,728.392h0.104l2.706-16.213h4.757l-4.843,25.41h-4.567l-3.533-15.567h-0.104
					l-3.498,15.567h-4.55l-4.843-25.41h4.757l2.705,16.213h0.104l3.619-16.213h3.516L359.537,728.392z"/>
				<path style="fill:#268EEB;" d="M382.079,732.161h-6.618l-1.344,5.428h-4.946l7.066-25.41h5.102l7.049,25.41h-4.946
					L382.079,732.161z M376.46,728.199h4.619l-2.257-8.987h-0.103L376.46,728.199z"/>
				<path style="fill:#268EEB;" d="M397.702,723.068h0.103l4.188-10.89h5.325l-7.169,16.37v9.04h-4.895v-9.355l-7.049-16.056h5.36
					L397.702,723.068z"/>
				<path style="fill:#268EEB;" d="M433.468,728.462c0,2.979-0.799,5.305-2.396,6.98c-1.598,1.675-3.723,2.513-6.377,2.513
					s-4.773-0.838-6.359-2.513c-1.586-1.676-2.378-4.002-2.378-6.98v-7.121c0-2.967,0.792-5.297,2.378-6.989
					c1.586-1.693,3.699-2.539,6.343-2.539c2.642,0,4.768,0.846,6.376,2.539c1.608,1.692,2.413,4.022,2.413,6.989V728.462z
					 M428.591,721.287c0-1.82-0.334-3.194-1-4.122c-0.666-0.928-1.638-1.392-2.912-1.392c-1.287,0-2.253,0.462-2.895,1.383
					c-0.644,0.922-0.966,2.299-0.966,4.131v7.176c0,1.844,0.328,3.227,0.982,4.148c0.655,0.922,1.62,1.383,2.896,1.383
					c1.264,0,2.229-0.461,2.896-1.383c0.666-0.922,1-2.305,1-4.148V721.287z"/>
				<path style="fill:#268EEB;" d="M450.965,727.03h-8.514v10.559h-4.912v-25.41h14.926v3.962h-10.014v6.928h8.514V727.03z"/>
				<path style="fill:#268EEB;" d="M468.806,737.589h-4.877v-25.41h4.877V737.589z"/>
				<path style="fill:#268EEB;" d="M490.259,737.589h-4.878l-7.669-16.248l-0.103,0.035v16.213h-4.912v-25.41h4.912l7.669,16.23
					l0.104-0.035v-16.195h4.878V737.589z"/>
				<path style="fill:#268EEB;" d="M494.967,737.589v-25.41h7.583c2.574,0,4.699,0.986,6.377,2.958
					c1.678,1.972,2.517,4.512,2.517,7.618v4.275c0,3.106-0.839,5.644-2.517,7.609c-1.678,1.966-3.803,2.949-6.377,2.949H494.967z
					 M499.879,716.141v17.486h2.396c1.367,0,2.422-0.603,3.162-1.808c0.741-1.205,1.112-2.804,1.112-4.796v-4.314
					c0-1.979-0.371-3.569-1.112-4.769c-0.74-1.199-1.795-1.799-3.162-1.799H499.879z"/>
				<path style="fill:#268EEB;" d="M520.821,737.589h-4.877v-25.41h4.877V737.589z"/>
				<path style="fill:#268EEB;" d="M536.002,732.161h-6.618l-1.345,5.428h-4.946l7.066-25.41h5.102l7.049,25.41h-4.946
					L536.002,732.161z M530.384,728.199h4.618l-2.258-8.987h-0.104L530.384,728.199z"/>
			</g>
		</g>
	</g>
</g>
<g id="Layer_1">
</g>
</svg>
